<svg xmlns="http://www.w3.org/2000/svg" width="21" height="21.004" viewBox="0 0 21 21.004">
  <path id="Path_234" data-name="Path 234" d="M-6.234-18.375h1.969a.982.982,0,0,1,.984.984v2.141a1.636,1.636,0,0,1-.172.734l-.812,1.624v1.817c2.063.353,3.609,1.8,3.609,3.527a3.005,3.005,0,0,1-.476,1.6,1.529,1.529,0,0,0,.119,1.78,4.069,4.069,0,0,1,.607.874c-.094.2-.193.394-.287.57A4.894,4.894,0,0,0-1.308-.4,4.313,4.313,0,0,0-1.087.964,5.765,5.765,0,0,1-5.25,2.625c-2.9,0-5.25-1.911-5.25-4.266A3.741,3.741,0,0,1-9.483-4.163a1.536,1.536,0,0,0,.119-1.78,2.974,2.974,0,0,1-.48-1.6c0-1.727,1.546-3.171,3.609-3.527v-1.817l-.812-1.624a1.624,1.624,0,0,1-.172-.734v-2.141A.982.982,0,0,1-6.234-18.375ZM-5.25-4.266A1.64,1.64,0,0,0-3.609-5.906,1.64,1.64,0,0,0-5.25-7.547,1.64,1.64,0,0,0-6.891-5.906,1.64,1.64,0,0,0-5.25-4.266ZM4.266-12.28l-.878-1a1.322,1.322,0,0,1-.3-1.14l.57-2.658a1.629,1.629,0,0,1,1.6-1.292,1.631,1.631,0,0,1,1.632,1.632v.189a1.464,1.464,0,0,1-.656,1.218v6.759A2.152,2.152,0,0,0,8.06-9.86a.937.937,0,0,1,.8-.636.658.658,0,0,1,.656.656v1.2a3.646,3.646,0,0,1-.381,1.374l-.021.045A3.356,3.356,0,0,0,8.859-5.9a8.9,8.9,0,0,0,1.181,3.81A3.578,3.578,0,0,1,10.5-.4,3.025,3.025,0,0,1,7.473,2.629H3.027A3.031,3.031,0,0,1,0-.4,3.566,3.566,0,0,1,.459-2.1a8.9,8.9,0,0,0,1.181-3.81,3.5,3.5,0,0,0-.185-1.14l-.111-.308A4.425,4.425,0,0,1,.984-8.839V-10.5a.658.658,0,0,1,.656-.656.813.813,0,0,1,.746.648A2.385,2.385,0,0,0,4.266-8.593ZM3.281-5.25a.658.658,0,0,0,.656.656H6.563a.658.658,0,0,0,.656-.656.658.658,0,0,0-.656-.656H3.938A.658.658,0,0,0,3.281-5.25Zm0,2.625a.658.658,0,0,0,.656.656H6.563a.658.658,0,0,0,.656-.656.658.658,0,0,0-.656-.656H3.938A.658.658,0,0,0,3.281-2.625Z" transform="translate(10.5 18.375)" fill="#fafbfb"/>
</svg>
