<svg xmlns="http://www.w3.org/2000/svg" width="26.242" height="17.063" viewBox="0 0 26.242 17.063">
  <path id="Path_237" data-name="Path 237" d="M0-15.75a1.784,1.784,0,0,0,1.263-.591,2.275,2.275,0,0,1,1.69-.722c2.022,0,3.462,6.243,4.015,9.1A17.448,17.448,0,0,1,0-6.562a17.448,17.448,0,0,1-6.969-1.4c.554-2.859,1.993-9.1,4.015-9.1a2.275,2.275,0,0,1,1.69.722A1.784,1.784,0,0,0,0-15.75ZM-8.568-7.272A18.486,18.486,0,0,0,0-5.25,18.454,18.454,0,0,0,8.572-7.272a12.494,12.494,0,0,0,2.875-1.956.98.98,0,0,1,1.214-.135,1,1,0,0,1,.406,1.169,11.764,11.764,0,0,1-2.711,4.126A13.918,13.918,0,0,1,0,0,13.926,13.926,0,0,1-10.356-4.069,11.817,11.817,0,0,1-13.068-8.2a1,1,0,0,1,.406-1.169.985.985,0,0,1,1.214.135A12.583,12.583,0,0,0-8.572-7.276Z" transform="translate(13.121 17.063)" fill="#fafbfb"/>
</svg>
