<svg xmlns="http://www.w3.org/2000/svg" width="21" height="21.002" viewBox="0 0 21 21.002">
  <path id="Path_229" data-name="Path 229" d="M9.971-18.117a1.315,1.315,0,0,1,.529,1.054V-3.281C10.5-1.468,8.736,0,6.563,0S2.625-1.468,2.625-3.281,4.389-6.562,6.563-6.562a4.573,4.573,0,0,1,1.313.189v-5.972L-2.625-9.2V-.656c0,1.813-1.764,3.281-3.937,3.281S-10.5,1.157-10.5-.656s1.764-3.281,3.938-3.281a4.573,4.573,0,0,1,1.313.189v-9.376a1.319,1.319,0,0,1,.935-1.259L8.81-18.322a1.306,1.306,0,0,1,1.161.205Z" transform="translate(10.5 18.377)" fill="#fafbfb"/>
</svg>
