<svg xmlns="http://www.w3.org/2000/svg" width="21" height="18.375" viewBox="0 0 21 18.375">
  <path id="Path_231" data-name="Path 231" d="M0-15.094A8.53,8.53,0,0,0-8.531-6.562V-2.3a.982.982,0,0,1-.984.984A.982.982,0,0,1-10.5-2.3V-6.562A10.5,10.5,0,0,1,0-17.062a10.5,10.5,0,0,1,10.5,10.5V-2.3a.982.982,0,0,1-.984.984A.982.982,0,0,1,8.531-2.3V-6.562A8.53,8.53,0,0,0,0-15.094ZM-7.219-3.937A2.627,2.627,0,0,1-4.594-6.562h.656A1.311,1.311,0,0,1-2.625-5.25V0A1.311,1.311,0,0,1-3.937,1.313h-.656A2.627,2.627,0,0,1-7.219-1.312ZM4.594-6.562A2.627,2.627,0,0,1,7.219-3.937v2.625A2.627,2.627,0,0,1,4.594,1.313H3.938A1.311,1.311,0,0,1,2.625,0V-5.25A1.311,1.311,0,0,1,3.938-6.562Z" transform="translate(10.5 17.063)" fill="#fafbfb"/>
</svg>
