<svg xmlns="http://www.w3.org/2000/svg" width="23.625" height="18.375" viewBox="0 0 23.625 18.375">
  <path id="Path_233" data-name="Path 233" d="M-11.812-14.437a2.627,2.627,0,0,1,2.625-2.625H9.188a2.627,2.627,0,0,1,2.625,2.625V-1.312A2.627,2.627,0,0,1,9.188,1.313H-9.187a2.627,2.627,0,0,1-2.625-2.625ZM3.938-7.875a6.561,6.561,0,0,0-6.562-6.562A6.561,6.561,0,0,0-9.187-7.875,6.561,6.561,0,0,0-2.625-1.312,6.561,6.561,0,0,0,3.938-7.875Zm5.25-5.906a.658.658,0,0,0-.656-.656.658.658,0,0,0-.656.656V-7.2a.679.679,0,0,1-.07.3L7.141-5.574a1.314,1.314,0,0,0-1.1.722L5.389-3.54a1.311,1.311,0,0,0,.587,1.76,1.311,1.311,0,0,0,1.76-.587l.656-1.312a1.306,1.306,0,0,0-.078-1.308l.664-1.329A1.992,1.992,0,0,0,9.187-7.2v-6.583ZM-2.625-6.562A1.311,1.311,0,0,1-3.937-7.875,1.311,1.311,0,0,1-2.625-9.187,1.311,1.311,0,0,1-1.312-7.875,1.311,1.311,0,0,1-2.625-6.562Z" transform="translate(11.813 17.063)" fill="#fafbfb"/>
</svg>
