<svg xmlns="http://www.w3.org/2000/svg" width="26.25" height="18.371" viewBox="0 0 26.25 18.371">
  <path id="Path_238" data-name="Path 238" d="M-3.006-11.156-6.095-5.82a1.039,1.039,0,0,0-.139.517V-5.2a.926.926,0,0,0,.927.927.931.931,0,0,0,.656-.271l4.61-4.606-.328-.328a.98.98,0,0,1,0-1.39.984.984,0,0,1,1.39,0l.328.328.578-.578L1.6-11.443a.98.98,0,0,1,0-1.39.984.984,0,0,1,1.39,0l.328.328.578-.578-.328-.328a.98.98,0,0,1,0-1.39.984.984,0,0,1,1.39,0l.328.328L7.1-16.291a2.626,2.626,0,0,1,1.858-.767H10.2a2.621,2.621,0,0,1,1.682.607l1,.833a.675.675,0,0,1,.242.517.669.669,0,0,1-.669.669H9.823a1.321,1.321,0,0,0-1.029.5L-1.288-1.206a6.632,6.632,0,0,1-5.2,2.518,6.634,6.634,0,0,1-6.636-6.636v-.127A6.814,6.814,0,0,1-12.945-7l.976-4.155h-.172a.982.982,0,0,1-.984-.984.982.982,0,0,1,.984-.984H-2.3a.982.982,0,0,1,.984.984.982.982,0,0,1-.984.984ZM-8.2-5.25a.982.982,0,0,0-.984-.984.982.982,0,0,0-.984.984.982.982,0,0,0,.984.984A.982.982,0,0,0-8.2-5.25ZM-7.875-8.2a.982.982,0,0,0,.984-.984.982.982,0,0,0-.984-.984.982.982,0,0,0-.984.984A.982.982,0,0,0-7.875-8.2Z" transform="translate(13.125 17.058)" fill="#fafbfb"/>
</svg>
