<svg xmlns="http://www.w3.org/2000/svg" width="21" height="21" viewBox="0 0 21 21">
  <path id="Path_235" data-name="Path 235" d="M0-18.375a.982.982,0,0,0-.984.984v2.625A.982.982,0,0,0,0-13.781a.982.982,0,0,0,.984-.984v-2.625A.982.982,0,0,0,0-18.375ZM0-1.969a.982.982,0,0,0-.984.984V1.641A.982.982,0,0,0,0,2.625a.982.982,0,0,0,.984-.984V-.984A.982.982,0,0,0,0-1.969ZM9.516-6.891a.982.982,0,0,0,.984-.984.982.982,0,0,0-.984-.984H6.891a.982.982,0,0,0-.984.984.982.982,0,0,0,.984.984ZM-5.906-7.875a.982.982,0,0,0-.984-.984H-9.516a.982.982,0,0,0-.984.984.982.982,0,0,0,.984.984h2.625A.982.982,0,0,0-5.906-7.875Zm13.33-6.033a.98.98,0,0,0,0-1.39.984.984,0,0,0-1.39,0L4.175-13.441a.98.98,0,0,0,0,1.39.984.984,0,0,0,1.39,0ZM-4.175-3.7a.98.98,0,0,0-1.39,0L-7.424-1.842a.98.98,0,0,0,0,1.39.984.984,0,0,0,1.39,0l1.858-1.858a.98.98,0,0,0,0-1.39ZM6.033-.451a.98.98,0,0,0,1.39,0,.984.984,0,0,0,0-1.39L5.566-3.7a.98.98,0,0,0-1.39,0,.984.984,0,0,0,0,1.39ZM-4.175-12.05a.98.98,0,0,0,0-1.39L-6.033-15.3a.98.98,0,0,0-1.39,0,.984.984,0,0,0,0,1.39l1.858,1.858A.98.98,0,0,0-4.175-12.05ZM0-3.281A4.591,4.591,0,0,0,4.594-7.875,4.591,4.591,0,0,0,0-12.469,4.591,4.591,0,0,0-4.594-7.875,4.591,4.591,0,0,0,0-3.281Z" transform="translate(10.5 18.375)" fill="#fafbfb"/>
</svg>
