<svg xmlns="http://www.w3.org/2000/svg" width="20.992" height="21" viewBox="0 0 20.992 21">
  <path id="Path_236" data-name="Path 236" d="M3.938-15.049v1.378L-.5-9.229a2.557,2.557,0,0,1,.131-2.654.861.861,0,0,0-.07-1.038.678.678,0,0,0-.968,0l-1.226,1.239a4.654,4.654,0,0,0-.829,1.374c-.049.107-.094.209-.144.312a3.652,3.652,0,0,1-.7.984A9.152,9.152,0,0,1-7.982-7.055a3.748,3.748,0,0,0-1.587.919,3.219,3.219,0,0,0,0,4.512L-6.292,1.69a3.129,3.129,0,0,0,4.463,0A3.762,3.762,0,0,0-.919.082,9.386,9.386,0,0,1,1.017-3.634a3.463,3.463,0,0,1,1.157-.792l.045-.021a3.794,3.794,0,0,0,1.3-.738L4.4-6.079a.7.7,0,0,0,0-.976.977.977,0,0,0-1.058-.123,2.118,2.118,0,0,1-1.981-.193l7.059-7.067h.111A1.969,1.969,0,0,0,10.5-16.406a1.969,1.969,0,0,0-1.969-1.969H8.486a2.02,2.02,0,0,0-1.12.34L4.52-16.14A1.307,1.307,0,0,0,3.938-15.049ZM-2.49-7.354-.521-5.385a.659.659,0,0,1,0,.927.659.659,0,0,1-.927,0L-3.417-6.427a.659.659,0,0,1,0-.927A.659.659,0,0,1-2.49-7.354ZM-5.115-4.729-3.146-2.76a.659.659,0,0,1,0,.927.659.659,0,0,1-.927,0L-6.042-3.8a.659.659,0,0,1,0-.927.659.659,0,0,1,.927,0Z" transform="translate(10.492 18.375)" fill="#fafbfb"/>
</svg>
