<svg xmlns="http://www.w3.org/2000/svg" width="20.999" height="20.999" viewBox="0 0 20.999 20.999">
  <path id="Path_227" data-name="Path 227" d="M9.155-17.03a4.6,4.6,0,0,0-6.5,0l-.193.193,6.5,6.5.193-.193A4.6,4.6,0,0,0,9.155-17.03ZM1.538-15.91l-.193.193a4.581,4.581,0,0,0-1.329,3.65L4.192-7.891A4.581,4.581,0,0,0,7.842-9.22l.193-.193ZM-1.1-11.333l-.546.628L-10.18-.861A1.312,1.312,0,0,0-10.114.927L-8.8,2.239a1.312,1.312,0,0,0,1.788.066l5.7-4.942v3.95A1.311,1.311,0,0,0,0,2.625,1.311,1.311,0,0,0,1.313,1.313V-4.914L2.83-6.226l.628-.546Z" transform="translate(10.5 18.374)" fill="#fafbfb"/>
</svg>
