<svg xmlns="http://www.w3.org/2000/svg" width="26.25" height="21" viewBox="0 0 26.25 21">
  <path id="Path_232" data-name="Path 232" d="M-8.2-16.406H8.2a1.64,1.64,0,0,1,1.641,1.641v2.953H5.25a1.311,1.311,0,0,0-1.312-1.312,1.311,1.311,0,0,0-1.312,1.313H1.313A1.311,1.311,0,0,0,0-13.125a1.311,1.311,0,0,0-1.312,1.313H-2.625a1.311,1.311,0,0,0-1.312-1.312A1.311,1.311,0,0,0-5.25-11.812H-9.844v-2.953A1.64,1.64,0,0,1-8.2-16.406ZM11.813-11.46v-3.306A3.609,3.609,0,0,0,8.2-18.375H-8.2a3.609,3.609,0,0,0-3.609,3.609v3.306a2.62,2.62,0,0,0-1.312,2.272V0A2.627,2.627,0,0,0-10.5,2.625h21A2.627,2.627,0,0,0,13.125,0V-9.187A2.62,2.62,0,0,0,11.813-11.46ZM-2.625-4.594A3.28,3.28,0,0,0-5.906-7.875,3.28,3.28,0,0,0-9.187-4.594,3.28,3.28,0,0,0-5.906-1.312,3.28,3.28,0,0,0-2.625-4.594Zm1.313,0A4.591,4.591,0,0,1-5.906,0,4.591,4.591,0,0,1-10.5-4.594,4.591,4.591,0,0,1-5.906-9.187,4.591,4.591,0,0,1-1.312-4.594ZM5.906-1.312A3.28,3.28,0,0,0,9.188-4.594,3.28,3.28,0,0,0,5.906-7.875,3.28,3.28,0,0,0,2.625-4.594,3.28,3.28,0,0,0,5.906-1.312ZM5.906,0A4.591,4.591,0,0,1,1.313-4.594,4.591,4.591,0,0,1,5.906-9.187,4.591,4.591,0,0,1,10.5-4.594,4.591,4.591,0,0,1,5.906,0Z" transform="translate(13.125 18.375)" fill="#fafbfb"/>
</svg>
