<svg xmlns="http://www.w3.org/2000/svg" width="26.25" height="21" viewBox="0 0 26.25 21">
  <path id="Path_230" data-name="Path 230" d="M-10.5-18.375h8.876a3.922,3.922,0,0,0-1,2.625v7.941A4.588,4.588,0,0,0-5.906-9.187,4.591,4.591,0,0,0-10.5-4.594,4.591,4.591,0,0,0-5.906,0,4.588,4.588,0,0,0-2.625-1.378V0a3.922,3.922,0,0,0,1,2.625H-10.5A2.627,2.627,0,0,1-13.125,0V-15.75A2.627,2.627,0,0,1-10.5-18.375ZM0,2.272A2.625,2.625,0,0,1-1.312,0V-15.75A2.62,2.62,0,0,1,0-18.022a2.585,2.585,0,0,1,1.313-.353H10.5a2.627,2.627,0,0,1,2.625,2.625V0A2.627,2.627,0,0,1,10.5,2.625H1.313A2.585,2.585,0,0,1,0,2.272ZM1.313-4.594A4.591,4.591,0,0,0,5.906,0,4.591,4.591,0,0,0,10.5-4.594,4.591,4.591,0,0,0,5.906-9.187,4.591,4.591,0,0,0,1.313-4.594ZM-5.906-1.969A2.627,2.627,0,0,1-8.531-4.594,2.627,2.627,0,0,1-5.906-7.219,2.627,2.627,0,0,1-3.281-4.594,2.627,2.627,0,0,1-5.906-1.969Zm0-9.844a1.969,1.969,0,0,0,1.969-1.969A1.969,1.969,0,0,0-5.906-15.75a1.969,1.969,0,0,0-1.969,1.969A1.969,1.969,0,0,0-5.906-11.812ZM8.531-4.594A2.627,2.627,0,0,1,5.906-1.969,2.627,2.627,0,0,1,3.281-4.594,2.627,2.627,0,0,1,5.906-7.219,2.627,2.627,0,0,1,8.531-4.594Zm-.656-9.187A1.969,1.969,0,0,0,5.906-15.75a1.969,1.969,0,0,0-1.969,1.969,1.969,1.969,0,0,0,1.969,1.969A1.969,1.969,0,0,0,7.875-13.781Z" transform="translate(13.125 18.375)" fill="#fafbfb"/>
</svg>
