<svg xmlns="http://www.w3.org/2000/svg" width="15.75" height="21" viewBox="0 0 15.75 21">
  <path id="Path_228" data-name="Path 228" d="M-6.562-17.062A1.311,1.311,0,0,1-5.25-18.375a1.311,1.311,0,0,1,1.313,1.313v8.531H-6.562ZM1.313-10.5a1.311,1.311,0,0,1,1.313-1.312A1.311,1.311,0,0,1,3.938-10.5v2.625A1.311,1.311,0,0,1,2.625-6.562,1.311,1.311,0,0,1,1.313-7.875Zm-2.625-2.625A1.311,1.311,0,0,1,0-11.812v1.969A1.311,1.311,0,0,1-1.312-8.531,1.311,1.311,0,0,1-2.625-9.844v-1.969A1.311,1.311,0,0,1-1.312-13.125ZM5.25-14.437A1.311,1.311,0,0,1,6.563-15.75a1.311,1.311,0,0,1,1.313,1.313v10.5A6.561,6.561,0,0,1,1.313,2.625H-1.218A6.563,6.563,0,0,1-5.857.7l-.48-.476A5.253,5.253,0,0,1-7.875-3.486V-4.594A2.627,2.627,0,0,1-5.25-7.219h3.609A1.64,1.64,0,0,1,0-5.578,1.64,1.64,0,0,1-1.641-3.937h-2.3a.658.658,0,0,0-.656.656.658.658,0,0,0,.656.656h2.3A2.951,2.951,0,0,0,1.312-5.578V-5.6a2.627,2.627,0,0,0,1.313.353A2.627,2.627,0,0,0,5.25-7.875v-6.562Z" transform="translate(7.875 18.375)" fill="#fafbfb"/>
</svg>
