<svg xmlns="http://www.w3.org/2000/svg" width="128.735" height="156.937" viewBox="0 0 128.735 156.937">
  <g id="Group_14" data-name="Group 14" transform="translate(-307.635 -723.61)">
    <path id="Path_211" data-name="Path 211" d="M-1828.121,1659.522a3.613,3.613,0,0,1-3.613-3.614v-45.149a3.613,3.613,0,0,1,3.613-3.614h4.3V1554.77a9.222,9.222,0,0,1,9.222-9.223,9.224,9.224,0,0,1,9.223,9.223v26.005c1.538,25.134,23.955,26.385,23.955,26.385l0,.025a3.614,3.614,0,0,1,3.069,3.573v45.149a3.613,3.613,0,0,1-3.613,3.614Z" transform="translate(2214.717 -778.975)" fill="#ebcfc3"/>
    <path id="Path_209" data-name="Path 209" d="M10.839,0H69.125A10.839,10.839,0,0,1,79.963,10.839V140.832a10.839,10.839,0,0,1-10.839,10.839H10.839A10.839,10.839,0,0,1,0,140.832V10.839A10.839,10.839,0,0,1,10.839,0Z" transform="translate(317.053 723.61)" fill="#dedbed"/>
    <path id="Subtraction_45" data-name="Subtraction 45" d="M18.806,142.942H4.844a6.007,6.007,0,0,0,5.994-6V6a6.007,6.007,0,0,0-6-6H18.806a6.007,6.007,0,0,1,6,6V136.942A6.006,6.006,0,0,1,18.806,142.942Z" transform="translate(372.21 727.101)" fill="#c8c4d9"/>
    <path id="Path_210" data-name="Path 210" d="M3.288,0H24.053a3.288,3.288,0,0,1,0,6.576H3.288A3.288,3.288,0,0,1,3.288,0Z" transform="translate(343.364 733.325)" fill="#504d62"/>
    <path id="Path_204" data-name="Path 204" d="M10.839,5.419a5.426,5.426,0,0,0-5.419,5.419V140.832a5.426,5.426,0,0,0,5.419,5.419H69.125a5.426,5.426,0,0,0,5.419-5.419V10.839a5.426,5.426,0,0,0-5.419-5.419H10.839m0-5.419H69.125A10.839,10.839,0,0,1,79.963,10.839V140.832a10.839,10.839,0,0,1-10.839,10.839H10.839A10.839,10.839,0,0,1,0,140.832V10.839A10.839,10.839,0,0,1,10.839,0Z" transform="translate(317.053 723.61)" fill="#504d62"/>
    <path id="Path_207" data-name="Path 207" d="M8.35,0A8.35,8.35,0,0,1,16.7,8.35v8.083a8.35,8.35,0,0,1-16.7,0V8.35A8.35,8.35,0,0,1,8.35,0Z" transform="translate(332.418 816.145) rotate(90)" fill="#ebcfc3"/>
    <path id="Path_206" data-name="Path 206" d="M8.35,0A8.35,8.35,0,0,1,16.7,8.35v8.083a8.35,8.35,0,0,1-16.7,0V8.35A8.35,8.35,0,0,1,8.35,0Z" transform="translate(332.418 799.446) rotate(90)" fill="#ebcfc3"/>
    <path id="Path_205" data-name="Path 205" d="M8.35,0A8.35,8.35,0,0,1,16.7,8.35v8.083a8.35,8.35,0,0,1-16.7,0V8.35A8.35,8.35,0,0,1,8.35,0Z" transform="translate(332.418 782.834) rotate(90)" fill="#ebcfc3"/>
    <path id="Path_208" data-name="Path 208" d="M8.35,0A8.35,8.35,0,0,1,16.7,8.35v8.083a8.35,8.35,0,0,1-16.7,0V8.35A8.35,8.35,0,0,1,8.35,0Z" transform="translate(332.418 832.844) rotate(90)" fill="#ebcfc3"/>
    <path id="Path_203" data-name="Path 203" d="M4.422-10.344A3.762,3.762,0,0,0,.656-6.578,3.762,3.762,0,0,1-3.109-2.813,3.762,3.762,0,0,1-6.875-6.578a11.3,11.3,0,0,1,11.3-11.3H15.836A14.951,14.951,0,0,1,30.781-2.93,14.955,14.955,0,0,1,21.249,11l-7.413,2.883v2.13a3.766,3.766,0,1,1-7.531,0v-2.13a7.515,7.515,0,0,1,4.8-7.013l7.413-2.883a7.441,7.441,0,0,0,4.73-6.919,7.413,7.413,0,0,0-7.413-7.413ZM10.07,34.843a4.707,4.707,0,1,1,4.707-4.707A4.706,4.706,0,0,1,10.07,34.843Z" transform="translate(345.081 791.049)" fill="#fff"/>
  </g>
</svg>
