<svg xmlns="http://www.w3.org/2000/svg" xmlns:xlink="http://www.w3.org/1999/xlink" width="294.225" height="167.958" viewBox="0 0 294.225 167.958">
  <defs>
    <linearGradient id="linear-gradient" x1="0.5" x2="0.5" y2="1" gradientUnits="objectBoundingBox">
      <stop offset="0" stop-color="#f3f2f7"/>
      <stop offset="1" stop-color="#c8c4d9"/>
    </linearGradient>
  </defs>
  <g id="Group_18" data-name="Group 18" transform="translate(-47.937 -101)">
    <path id="Subtraction_6" data-name="Subtraction 6" d="M2352-1264h-73a10.012,10.012,0,0,1-10-10v-73a10.011,10.011,0,0,1,10-10h73a10.011,10.011,0,0,1,10,10v73A10.012,10.012,0,0,1,2352-1264Zm-32.921-34v5.878H2341.8a12.935,12.935,0,0,0,5.679-1.113,7.94,7.94,0,0,0,3.425-3.037,8.442,8.442,0,0,0,1.148-4.394,7.323,7.323,0,0,0-1.148-4.071,7.558,7.558,0,0,0-3.466-2.753,11.561,11.561,0,0,0-1.957-.626,8.225,8.225,0,0,0,.726-.386,7.492,7.492,0,0,0,2.892-2.937,7.844,7.844,0,0,0,.9-3.645,6.707,6.707,0,0,0-2.379-5.446,10.191,10.191,0,0,0-6.643-1.965h-21.9v.017a11.2,11.2,0,0,0-7.195,5.323c-2.83,4.536-3.2,10.868-3.236,11.575a7.363,7.363,0,0,1-1.6,3.361,10.211,10.211,0,0,1-3.9,2.784,8.606,8.606,0,0,1-3.347.537c-.376,0-.749-.01-1.145-.02h-.012l-.143,0-.022,0h-.055c-.4-.01-.861-.022-1.318-.022h-.275a10.082,10.082,0,0,1-4.6-1.368l-.366-.183a7.363,7.363,0,0,1-3.2-2.957,9.106,9.106,0,0,1-1.107-4.6,9.115,9.115,0,0,1,1.107-4.6,7.375,7.375,0,0,1,3.2-2.956,11.131,11.131,0,0,1,4.962-1.033,12.342,12.342,0,0,1,4.408.729,7.942,7.942,0,0,1,2.685,1.656l6-5.182a16.183,16.183,0,0,0-4.382-2.791,21.649,21.649,0,0,0-8.715-1.661,21.055,21.055,0,0,0-9.39,1.984,15.13,15.13,0,0,0-6.254,5.549,15.367,15.367,0,0,0-2.236,8.3,15.365,15.365,0,0,0,2.236,8.3,15.125,15.125,0,0,0,6.254,5.547,21.042,21.042,0,0,0,9.39,1.984,21.647,21.647,0,0,0,8.715-1.66,15.476,15.476,0,0,0,6.13-4.678,13.8,13.8,0,0,0,2.784-6.982h.01v-.016a41.512,41.512,0,0,1,1.3-7.824,5.021,5.021,0,0,1,3.342-3.241h7.168v-.005h11.743a3.529,3.529,0,0,1,2.46.789,2.615,2.615,0,0,1,.861,2.005,2.982,2.982,0,0,1-1.005,2.369,3.666,3.666,0,0,1-2.48.87h-11.482v5.751h12.63a4.941,4.941,0,0,1,3.281.951,3.184,3.184,0,0,1,1.107,2.532,3.113,3.113,0,0,1-1.025,2.47,4.251,4.251,0,0,1-2.87.891h-13.186l0-.006Z" transform="translate(-2120 1458)" fill="url(#linear-gradient)"/>
    <path id="Path_22" data-name="Path 22" d="M-125.863-7.625a8.329,8.329,0,0,1-1.662,4.188,9.158,9.158,0,0,1-3.65,2.813,12.652,12.652,0,0,1-5.163,1A12.238,12.238,0,0,1-141.95-.85a9.219,9.219,0,0,1-3.762-3.412,9.536,9.536,0,0,1-1.35-5.113,9.536,9.536,0,0,1,1.35-5.113A9.219,9.219,0,0,1-141.95-17.9a12.238,12.238,0,0,1,5.613-1.225,12.652,12.652,0,0,1,5.163,1,9.206,9.206,0,0,1,3.65,2.8,8.282,8.282,0,0,1,1.662,4.2h-4.275a4.818,4.818,0,0,0-1.075-2.287,5.408,5.408,0,0,0-2.125-1.488,8.04,8.04,0,0,0-3.025-.525,7.389,7.389,0,0,0-3.413.738,5.229,5.229,0,0,0-2.212,2.1,6.389,6.389,0,0,0-.775,3.212,6.389,6.389,0,0,0,.775,3.213,5.229,5.229,0,0,0,2.212,2.1,7.389,7.389,0,0,0,3.413.737,8.215,8.215,0,0,0,3.025-.513,5.3,5.3,0,0,0,2.125-1.475,4.832,4.832,0,0,0,1.075-2.312Zm12.8,8A12.729,12.729,0,0,1-118.8-.85a9.322,9.322,0,0,1-3.838-3.412,9.4,9.4,0,0,1-1.375-5.113,9.4,9.4,0,0,1,1.375-5.113A9.322,9.322,0,0,1-118.8-17.9a12.729,12.729,0,0,1,5.737-1.225,12.729,12.729,0,0,1,5.738,1.225,9.322,9.322,0,0,1,3.838,3.412,9.4,9.4,0,0,1,1.375,5.113,9.4,9.4,0,0,1-1.375,5.113A9.322,9.322,0,0,1-107.325-.85,12.729,12.729,0,0,1-113.063.375Zm0-3.775a8,8,0,0,0,3.538-.725,5.35,5.35,0,0,0,2.3-2.075,6.039,6.039,0,0,0,.813-3.175,6.039,6.039,0,0,0-.812-3.175,5.35,5.35,0,0,0-2.3-2.075,8,8,0,0,0-3.538-.725,8.018,8.018,0,0,0-3.525.725A5.336,5.336,0,0,0-118.9-12.55a6.039,6.039,0,0,0-.812,3.175A6.039,6.039,0,0,0-118.9-6.2a5.336,5.336,0,0,0,2.313,2.075A8.019,8.019,0,0,0-113.063-3.4Zm31.25.6-1.475.225V-18.75h4.125V0h-5.375l-12-16.175,1.45-.225V0h-4.1V-18.75h5.5Zm26.775-4.825A8.329,8.329,0,0,1-56.7-3.437,9.158,9.158,0,0,1-60.35-.625a12.652,12.652,0,0,1-5.162,1A12.238,12.238,0,0,1-71.125-.85a9.219,9.219,0,0,1-3.762-3.412,9.536,9.536,0,0,1-1.35-5.113,9.536,9.536,0,0,1,1.35-5.113A9.219,9.219,0,0,1-71.125-17.9a12.238,12.238,0,0,1,5.613-1.225,12.652,12.652,0,0,1,5.162,1,9.206,9.206,0,0,1,3.65,2.8,8.282,8.282,0,0,1,1.662,4.2h-4.275a4.818,4.818,0,0,0-1.075-2.287A5.408,5.408,0,0,0-62.513-14.9a8.04,8.04,0,0,0-3.025-.525,7.389,7.389,0,0,0-3.412.738,5.229,5.229,0,0,0-2.213,2.1,6.389,6.389,0,0,0-.775,3.212,6.389,6.389,0,0,0,.775,3.213,5.229,5.229,0,0,0,2.213,2.1,7.389,7.389,0,0,0,3.412.737,8.215,8.215,0,0,0,3.025-.513,5.3,5.3,0,0,0,2.125-1.475,4.832,4.832,0,0,0,1.075-2.312ZM-36.813-11v3.25H-50.238V-11ZM-47.388-9.375l-1.25,7.95-1.85-2.1h14.45V0H-52.913l1.45-9.375-1.45-9.375h16.75v3.525H-50.488l1.85-2.1Zm17.525-1.05h7.225a3.549,3.549,0,0,0,2.262-.663,2.212,2.212,0,0,0,.838-1.837,2.178,2.178,0,0,0-.838-1.825,3.6,3.6,0,0,0-2.262-.65h-7.85l1.925-2.175V0h-4.25V-18.75h10.675a8.291,8.291,0,0,1,3.6.737,5.9,5.9,0,0,1,2.425,2.038,5.332,5.332,0,0,1,.875,3.05A5.289,5.289,0,0,1-16.113-9.9a5.9,5.9,0,0,1-2.425,2.037,8.291,8.291,0,0,1-3.6.738h-7.725Zm3.25,1.65h4.85L-14.688,0h-4.975ZM-6.688-16.85h4.225V0H-6.688Zm-7.475-1.9H4.987V-15h-19.15Zm39.125,9.5.4-.85a9.38,9.38,0,0,1,3.6.688,4.573,4.573,0,0,1,2.1,1.725A4.619,4.619,0,0,1,31.737-5.2a5.056,5.056,0,0,1-.713,2.675,4.879,4.879,0,0,1-2.087,1.85A7.806,7.806,0,0,1,25.487,0H12.337l1.45-9.625-1.45-9.125H25.012a6.082,6.082,0,0,1,4.038,1.212A4.133,4.133,0,0,1,30.487-14.2a4.918,4.918,0,0,1-.538,2.225,4.489,4.489,0,0,1-1.75,1.813A7.458,7.458,0,0,1,24.962-9.25ZM16.537-1.075l-1.625-2.05h9.7A3.1,3.1,0,0,0,26.7-3.763a2.236,2.236,0,0,0,.737-1.788,2.269,2.269,0,0,0-.85-1.862,3.9,3.9,0,0,0-2.5-.688h-7.9v-3.05h7.4a2.746,2.746,0,0,0,1.862-.637,2.236,2.236,0,0,0,.737-1.787,1.925,1.925,0,0,0-.625-1.462,2.531,2.531,0,0,0-1.8-.588h-8.85l1.625-2.05,1.325,8.05Zm22.025-7.15a5.39,5.39,0,0,0,.575,2.575,3.963,3.963,0,0,0,1.688,1.662,5.69,5.69,0,0,0,2.688.588,5.672,5.672,0,0,0,2.7-.588A3.98,3.98,0,0,0,47.887-5.65a5.39,5.39,0,0,0,.575-2.575V-18.75h4.25V-8.025a8.312,8.312,0,0,1-1.15,4.413A7.814,7.814,0,0,1,48.337-.675,10.551,10.551,0,0,1,43.512.375,10.473,10.473,0,0,1,38.7-.675a7.918,7.918,0,0,1-3.225-2.937,8.243,8.243,0,0,1-1.163-4.413V-18.75h4.25ZM65.212-18.75a13.186,13.186,0,0,1,5.738,1.175A9.2,9.2,0,0,1,74.787-14.3a8.786,8.786,0,0,1,1.375,4.925,8.8,8.8,0,0,1-1.375,4.912A9.168,9.168,0,0,1,70.95-1.175,13.186,13.186,0,0,1,65.212,0h-8.9V-18.75ZM60.537-1.675,58.387-3.75h7.15a7.537,7.537,0,0,0,3.338-.7,5.161,5.161,0,0,0,2.212-1.975,5.566,5.566,0,0,0,.775-2.95,5.549,5.549,0,0,0-.775-2.962A5.188,5.188,0,0,0,68.875-14.3a7.537,7.537,0,0,0-3.338-.7h-7.15l2.15-2.075ZM87.987-18.75a13.186,13.186,0,0,1,5.738,1.175A9.2,9.2,0,0,1,97.562-14.3a8.786,8.786,0,0,1,1.375,4.925,8.8,8.8,0,0,1-1.375,4.912,9.168,9.168,0,0,1-3.838,3.288A13.186,13.186,0,0,1,87.987,0h-8.9V-18.75ZM83.312-1.675,81.162-3.75h7.15a7.537,7.537,0,0,0,3.338-.7,5.161,5.161,0,0,0,2.212-1.975,5.566,5.566,0,0,0,.775-2.95,5.549,5.549,0,0,0-.775-2.962A5.188,5.188,0,0,0,91.65-14.3a7.537,7.537,0,0,0-3.338-.7h-7.15l2.15-2.075Zm18.55-17.075h4.25V0h-4.25ZM125.438-11v3.25H112.012V-11ZM114.862-9.375l-1.25,7.95-1.85-2.1h14.45V0H109.337l1.45-9.375-1.45-9.375h16.75v3.525H111.762l1.85-2.1Zm13.575,3.25h4.3a3.025,3.025,0,0,0,.837,1.662,4.488,4.488,0,0,0,1.85,1.1,8.5,8.5,0,0,0,2.688.387,8.018,8.018,0,0,0,3.512-.637A1.964,1.964,0,0,0,142.912-5.4a1.567,1.567,0,0,0-.737-1.387,6.78,6.78,0,0,0-2.738-.713l-3.775-.425a10.348,10.348,0,0,1-5.287-1.713,4.43,4.43,0,0,1-1.637-3.662,4.747,4.747,0,0,1,1.087-3.15,6.789,6.789,0,0,1,3.063-1.987,14.161,14.161,0,0,1,4.65-.687,13.065,13.065,0,0,1,4.625.763,7.913,7.913,0,0,1,3.225,2.125,5.115,5.115,0,0,1,1.3,3.188h-4.3a2.525,2.525,0,0,0-.738-1.437,4.059,4.059,0,0,0-1.687-.95,8.459,8.459,0,0,0-2.525-.337,7.275,7.275,0,0,0-3.225.6,1.858,1.858,0,0,0-1.2,1.7,1.476,1.476,0,0,0,.712,1.313,6.407,6.407,0,0,0,2.513.688l3.925.475a16.054,16.054,0,0,1,4.138.887,4.485,4.485,0,0,1,2.2,1.638,4.7,4.7,0,0,1,.662,2.6,5.087,5.087,0,0,1-1.137,3.287A7.284,7.284,0,0,1,142.837-.4a13.548,13.548,0,0,1-4.8.775,13.742,13.742,0,0,1-4.925-.812,7.972,7.972,0,0,1-3.35-2.275A5.622,5.622,0,0,1,128.438-6.125Z" transform="translate(195 247)" fill="#fafbfb"/>
    <path id="Path_21" data-name="Path 21" d="M-118.712-4.521h5.9v.913h-5.9Zm6.061-3.729v.913h-6.171l.649-.66V0h-1.034V-8.25Zm1.232,2.035.506.088.506-.088V0h-1.012Zm.5-.913a.754.754,0,0,1-.522-.192.629.629,0,0,1-.215-.49.617.617,0,0,1,.215-.478.754.754,0,0,1,.522-.193.764.764,0,0,1,.539.193.624.624,0,0,1,.209.478.636.636,0,0,1-.209.49A.764.764,0,0,1-110.924-7.128Zm1.87.935h1.012l.352,2.1V0H-108.7V-4.235Zm3.927-.143a2.923,2.923,0,0,1,1.474.346,2.266,2.266,0,0,1,.924,1,3.575,3.575,0,0,1,.319,1.579V0h-1.012V-3.234a2.429,2.429,0,0,0-.511-1.678,1.905,1.905,0,0,0-1.491-.567,2.269,2.269,0,0,0-1.193.308,2.091,2.091,0,0,0-.792.852,2.738,2.738,0,0,0-.281,1.27l-.407-.286a3.7,3.7,0,0,1,.473-1.6,2.827,2.827,0,0,1,1.039-1.04A2.88,2.88,0,0,1-105.127-6.336ZM-94.963,0l-.22-2.365.3-.726-.275-.781.429-4.6H-93.7l-.517,5.324L-93.929,0Zm.385-3.1a5.224,5.224,0,0,1-.743,1.7A3.682,3.682,0,0,1-96.53-.264,3.094,3.094,0,0,1-98.1.143a3.139,3.139,0,0,1-1.617-.412,2.936,2.936,0,0,1-1.105-1.144,3.452,3.452,0,0,1-.4-1.689,3.444,3.444,0,0,1,.4-1.694,2.907,2.907,0,0,1,1.105-1.133A3.172,3.172,0,0,1-98.1-6.336a3.094,3.094,0,0,1,1.568.407A3.755,3.755,0,0,1-95.315-4.8,4.933,4.933,0,0,1-94.578-3.1Zm-5.61,0A2.572,2.572,0,0,0-99.9-1.859a2.138,2.138,0,0,0,.8.841,2.236,2.236,0,0,0,1.16.3,2.5,2.5,0,0,0,1.215-.3,3.3,3.3,0,0,0,.99-.841,4.674,4.674,0,0,0,.71-1.243,4.674,4.674,0,0,0-.71-1.243,3.3,3.3,0,0,0-.99-.841,2.5,2.5,0,0,0-1.215-.3,2.236,2.236,0,0,0-1.16.3,2.138,2.138,0,0,0-.8.841A2.572,2.572,0,0,0-100.188-3.1Zm10.8-3.091h1.012V-3.85l-.055.2v1l.055.319V1.815h-1.012Zm.539,3.091A5.159,5.159,0,0,1-88.1-4.8a3.7,3.7,0,0,1,1.21-1.133,3.094,3.094,0,0,1,1.568-.407,3.172,3.172,0,0,1,1.617.407A2.907,2.907,0,0,1-82.6-4.8,3.444,3.444,0,0,1-82.2-3.1a3.453,3.453,0,0,1-.4,1.689A2.936,2.936,0,0,1-83.71-.269a3.139,3.139,0,0,1-1.617.412,3.094,3.094,0,0,1-1.568-.407A3.682,3.682,0,0,1-88.1-1.4,5.224,5.224,0,0,1-88.847-3.1Zm5.61,0a2.572,2.572,0,0,0-.291-1.243,2.138,2.138,0,0,0-.8-.841,2.236,2.236,0,0,0-1.16-.3,2.5,2.5,0,0,0-1.215.3,3.233,3.233,0,0,0-.985.841A5.008,5.008,0,0,0-88.407-3.1a5.008,5.008,0,0,0,.715,1.243,3.233,3.233,0,0,0,.985.841,2.5,2.5,0,0,0,1.215.3,2.236,2.236,0,0,0,1.16-.3,2.138,2.138,0,0,0,.8-.841A2.572,2.572,0,0,0-83.237-3.1ZM-77.649.143a4.141,4.141,0,0,1-1.887-.412,3.2,3.2,0,0,1-1.287-1.144A3.067,3.067,0,0,1-81.29-3.1,3.2,3.2,0,0,1-80.85-4.8a3.036,3.036,0,0,1,1.221-1.133,3.824,3.824,0,0,1,1.793-.407,3.386,3.386,0,0,1,1.749.44,3,3,0,0,1,1.16,1.237A3.98,3.98,0,0,1-74.514-2.8H-80.52v-.8h5.577l-.594.363a2.576,2.576,0,0,0-.33-1.2,2.054,2.054,0,0,0-.8-.781A2.427,2.427,0,0,0-77.847-5.5a2.62,2.62,0,0,0-1.265.292,2.1,2.1,0,0,0-.841.819,2.458,2.458,0,0,0-.3,1.243,2.413,2.413,0,0,0,.341,1.3A2.243,2.243,0,0,0-78.958-1a3.311,3.311,0,0,0,1.452.3,4.53,4.53,0,0,0,1.491-.253A4.733,4.733,0,0,0-74.7-1.65v.792a4.407,4.407,0,0,1-1.364.732A4.891,4.891,0,0,1-77.649.143Zm7.689,0a4.31,4.31,0,0,1-1.92-.407,3.092,3.092,0,0,1-1.292-1.144A3.122,3.122,0,0,1-73.634-3.1,3.087,3.087,0,0,1-73.172-4.8,3.119,3.119,0,0,1-71.88-5.929a4.31,4.31,0,0,1,1.92-.407,4.3,4.3,0,0,1,1.925.407A3.165,3.165,0,0,1-66.743-4.8,3.06,3.06,0,0,1-66.275-3.1a3.094,3.094,0,0,1-.467,1.694A3.137,3.137,0,0,1-68.035-.264,4.3,4.3,0,0,1-69.96.143Zm0-.847A3.164,3.164,0,0,0-68.552-1a2.15,2.15,0,0,0,.919-.831A2.427,2.427,0,0,0-67.309-3.1a2.4,2.4,0,0,0-.325-1.265,2.185,2.185,0,0,0-.919-.836,3.115,3.115,0,0,0-1.408-.3,3.123,3.123,0,0,0-1.4.3,2.142,2.142,0,0,0-.919.836A2.438,2.438,0,0,0-72.6-3.1a2.46,2.46,0,0,0,.319,1.276A2.109,2.109,0,0,0-71.362-1,3.173,3.173,0,0,0-69.96-.7Zm4.95-5.489H-64V-3.85l-.055.2v1l.055.319V1.815H-65.01Zm.539,3.091A5.159,5.159,0,0,1-63.729-4.8a3.7,3.7,0,0,1,1.21-1.133,3.094,3.094,0,0,1,1.567-.407,3.172,3.172,0,0,1,1.617.407A2.907,2.907,0,0,1-58.229-4.8a3.444,3.444,0,0,1,.4,1.694,3.453,3.453,0,0,1-.4,1.689A2.936,2.936,0,0,1-59.334-.269a3.139,3.139,0,0,1-1.617.412,3.094,3.094,0,0,1-1.567-.407A3.682,3.682,0,0,1-63.729-1.4,5.224,5.224,0,0,1-64.471-3.1Zm5.61,0a2.572,2.572,0,0,0-.292-1.243,2.138,2.138,0,0,0-.8-.841,2.236,2.236,0,0,0-1.16-.3,2.5,2.5,0,0,0-1.215.3,3.233,3.233,0,0,0-.985.841A5.008,5.008,0,0,0-64.031-3.1a5.008,5.008,0,0,0,.715,1.243,3.233,3.233,0,0,0,.985.841,2.5,2.5,0,0,0,1.215.3,2.236,2.236,0,0,0,1.16-.3,2.138,2.138,0,0,0,.8-.841A2.572,2.572,0,0,0-58.861-3.1ZM-56.54-8.47h1.012V0H-56.54ZM-50.622.143a4.141,4.141,0,0,1-1.886-.412A3.2,3.2,0,0,1-53.8-1.413,3.067,3.067,0,0,1-54.263-3.1a3.2,3.2,0,0,1,.44-1.694A3.036,3.036,0,0,1-52.6-5.929a3.824,3.824,0,0,1,1.793-.407,3.386,3.386,0,0,1,1.749.44A3,3,0,0,1-47.9-4.659,3.98,3.98,0,0,1-47.487-2.8h-6.006v-.8h5.577l-.594.363a2.575,2.575,0,0,0-.33-1.2,2.054,2.054,0,0,0-.8-.781A2.427,2.427,0,0,0-50.82-5.5a2.62,2.62,0,0,0-1.265.292,2.1,2.1,0,0,0-.842.819,2.458,2.458,0,0,0-.3,1.243,2.413,2.413,0,0,0,.341,1.3A2.243,2.243,0,0,0-51.931-1a3.311,3.311,0,0,0,1.452.3,4.53,4.53,0,0,0,1.491-.253,4.733,4.733,0,0,0,1.314-.693v.792a4.407,4.407,0,0,1-1.364.732A4.891,4.891,0,0,1-50.622.143Zm15.015-.616h-.429l2.332-5.72h1.034L-35.255,0h-1.034l-2.343-5.764h.473L-40.535,0h-1.034l-2.585-6.193h1.045l2.343,5.72h-.451l2.3-5.72h1.045Zm3.938-5.742.506.088.506-.088V0h-1.012Zm.495-.913A.754.754,0,0,1-31.7-7.32a.629.629,0,0,1-.215-.49.617.617,0,0,1,.215-.478.754.754,0,0,1,.522-.193.764.764,0,0,1,.539.193.624.624,0,0,1,.209.478.636.636,0,0,1-.209.49A.764.764,0,0,1-31.174-7.128ZM-29.8-5.379v-.484l1.364-.253.407-1.683h.6v1.606h3.014v.814h-3.014v3.146a1.535,1.535,0,0,0,.368,1.171,1.65,1.65,0,0,0,1.139.336,2.921,2.921,0,0,0,.885-.121,3.183,3.183,0,0,0,.743-.352v.891A3.073,3.073,0,0,1-25.064,0a3.924,3.924,0,0,1-1.061.143,2.71,2.71,0,0,1-1.347-.292,1.707,1.707,0,0,1-.737-.792,2.744,2.744,0,0,1-.225-1.138v-3.3Zm6.6-3.091h1.012V0H-23.2Zm3.564,2.134a2.922,2.922,0,0,1,1.474.346,2.266,2.266,0,0,1,.924,1,3.575,3.575,0,0,1,.319,1.579V0H-17.93V-3.234a2.447,2.447,0,0,0-.506-1.678,1.9,1.9,0,0,0-1.5-.567,2.247,2.247,0,0,0-1.182.308,2.091,2.091,0,0,0-.792.852,2.738,2.738,0,0,0-.281,1.27l-.407-.286a3.7,3.7,0,0,1,.473-1.6,2.827,2.827,0,0,1,1.04-1.04A2.858,2.858,0,0,1-19.635-6.336ZM-6.435,0l-.22-2.343L-6.38-3.1l-.275-.748.22-2.343H-5.4L-5.687-3.1-5.4,0Zm.4-3.1a5.224,5.224,0,0,1-.743,1.7A3.682,3.682,0,0,1-7.991-.264,3.094,3.094,0,0,1-9.559.143a3.139,3.139,0,0,1-1.617-.412,2.936,2.936,0,0,1-1.106-1.144,3.453,3.453,0,0,1-.4-1.689,3.444,3.444,0,0,1,.4-1.694,2.907,2.907,0,0,1,1.106-1.133,3.172,3.172,0,0,1,1.617-.407,3.094,3.094,0,0,1,1.567.407A3.755,3.755,0,0,1-6.776-4.8,4.933,4.933,0,0,1-6.039-3.1Zm-5.61,0a2.572,2.572,0,0,0,.292,1.243,2.138,2.138,0,0,0,.8.841,2.236,2.236,0,0,0,1.16.3,2.5,2.5,0,0,0,1.215-.3,3.3,3.3,0,0,0,.99-.841A4.674,4.674,0,0,0-6.479-3.1a4.674,4.674,0,0,0-.71-1.243,3.3,3.3,0,0,0-.99-.841,2.5,2.5,0,0,0-1.215-.3,2.236,2.236,0,0,0-1.16.3,2.138,2.138,0,0,0-.8.841A2.572,2.572,0,0,0-11.649-3.1Zm7.48-3.091h1.012l.352,2.1V0H-3.817V-4.235ZM-.44-6.336A2.547,2.547,0,0,1,.924-5.99a2.217,2.217,0,0,1,.858,1,3.8,3.8,0,0,1,.3,1.579V0H1.067V-3.234A2.607,2.607,0,0,0,.605-4.911,1.631,1.631,0,0,0-.737-5.478a1.944,1.944,0,0,0-1.094.308,2.007,2.007,0,0,0-.721.852,2.987,2.987,0,0,0-.253,1.27l-.407-.286a3.965,3.965,0,0,1,.445-1.6A2.734,2.734,0,0,1-1.8-5.968,2.542,2.542,0,0,1-.44-6.336Zm4.873,0A2.576,2.576,0,0,1,5.8-5.99a2.206,2.206,0,0,1,.864,1,3.8,3.8,0,0,1,.3,1.579V0H5.951V-3.234a2.607,2.607,0,0,0-.462-1.678,1.631,1.631,0,0,0-1.342-.567,1.944,1.944,0,0,0-1.095.308,2.007,2.007,0,0,0-.72.852,2.987,2.987,0,0,0-.253,1.27l-.407-.286a3.965,3.965,0,0,1,.446-1.6,2.734,2.734,0,0,1,.968-1.04A2.521,2.521,0,0,1,4.433-6.336ZM14.4,0l-.22-2.343.275-.759-.275-.748.22-2.343h1.034L15.147-3.1,15.433,0Zm.4-3.1a5.224,5.224,0,0,1-.743,1.7,3.682,3.682,0,0,1-1.21,1.138,3.094,3.094,0,0,1-1.567.407A3.139,3.139,0,0,1,9.658-.269,2.936,2.936,0,0,1,8.553-1.413a3.453,3.453,0,0,1-.4-1.689,3.444,3.444,0,0,1,.4-1.694A2.907,2.907,0,0,1,9.658-5.929a3.172,3.172,0,0,1,1.617-.407,3.094,3.094,0,0,1,1.567.407A3.755,3.755,0,0,1,14.058-4.8,4.933,4.933,0,0,1,14.8-3.1Zm-5.61,0a2.572,2.572,0,0,0,.292,1.243,2.138,2.138,0,0,0,.8.841,2.236,2.236,0,0,0,1.16.3,2.5,2.5,0,0,0,1.215-.3,3.3,3.3,0,0,0,.99-.841,4.674,4.674,0,0,0,.71-1.243,4.674,4.674,0,0,0-.71-1.243,3.3,3.3,0,0,0-.99-.841,2.5,2.5,0,0,0-1.215-.3,2.236,2.236,0,0,0-1.16.3,2.138,2.138,0,0,0-.8.841A2.572,2.572,0,0,0,9.185-3.1ZM16.511,0V-.77l5.126-4.972.539.352H16.555v-.8h6.017v.759L17.446-.462l-.473-.352h5.621V0ZM23.8-6.215l.506.088.506-.088V0H23.8Zm.495-.913a.754.754,0,0,1-.522-.192.629.629,0,0,1-.215-.49.617.617,0,0,1,.215-.478.754.754,0,0,1,.522-.193.764.764,0,0,1,.539.193.624.624,0,0,1,.209.478.636.636,0,0,1-.209.49A.764.764,0,0,1,24.3-7.128Zm1.87.935h1.012l.352,2.1V0H26.521V-4.235ZM30.1-6.336a2.923,2.923,0,0,1,1.474.346,2.266,2.266,0,0,1,.924,1,3.575,3.575,0,0,1,.319,1.579V0H31.8V-3.234a2.429,2.429,0,0,0-.511-1.678,1.905,1.905,0,0,0-1.49-.567,2.269,2.269,0,0,0-1.194.308,2.091,2.091,0,0,0-.792.852,2.738,2.738,0,0,0-.281,1.27l-.407-.286a3.7,3.7,0,0,1,.473-1.6,2.827,2.827,0,0,1,1.039-1.04A2.88,2.88,0,0,1,30.1-6.336ZM40.128-1.507V-2.618l.044-.165V-3.806l-.044-.22V-6.193H41.14V-1.65A3.808,3.808,0,0,1,40.65.363a3.056,3.056,0,0,1-1.326,1.2,4.394,4.394,0,0,1-1.9.4,4.756,4.756,0,0,1-1.49-.226,4.659,4.659,0,0,1-1.315-.687V.154A3.941,3.941,0,0,0,35.975.9a4.834,4.834,0,0,0,1.391.209,2.8,2.8,0,0,0,2.052-.7A2.571,2.571,0,0,0,40.128-1.507ZM36.982-.4A3.073,3.073,0,0,1,35.469-.77,2.808,2.808,0,0,1,34.4-1.809,2.986,2.986,0,0,1,34-3.366a3.008,3.008,0,0,1,.4-1.568,2.768,2.768,0,0,1,1.072-1.034,3.11,3.11,0,0,1,1.513-.368,3.442,3.442,0,0,1,1.166.192,3.881,3.881,0,0,1,.979.511,3.662,3.662,0,0,1,.748.715,3.593,3.593,0,0,1,.479.8,1.934,1.934,0,0,1,.171.754,2.144,2.144,0,0,1-.258.962,3.573,3.573,0,0,1-.737.968,4,4,0,0,1-1.122.748A3.413,3.413,0,0,1,36.982-.4Zm.275-.814a2.713,2.713,0,0,0,1.584-.506,4.56,4.56,0,0,0,1.331-1.65,4.365,4.365,0,0,0-1.326-1.667,2.758,2.758,0,0,0-1.59-.5,2.452,2.452,0,0,0-1.215.28,1.881,1.881,0,0,0-.759.765,2.346,2.346,0,0,0-.258,1.122,2.331,2.331,0,0,0,.258,1.105,1.872,1.872,0,0,0,.759.77A2.452,2.452,0,0,0,37.257-1.21ZM45.5-6.193h1.012l.352,2.1V0H45.848V-4.235Zm3.729-.143a2.547,2.547,0,0,1,1.364.346,2.217,2.217,0,0,1,.858,1,3.8,3.8,0,0,1,.3,1.579V0H50.732V-3.234a2.607,2.607,0,0,0-.462-1.678,1.631,1.631,0,0,0-1.342-.567,1.944,1.944,0,0,0-1.095.308,2.007,2.007,0,0,0-.721.852,2.987,2.987,0,0,0-.253,1.27l-.407-.286a3.965,3.965,0,0,1,.446-1.6,2.734,2.734,0,0,1,.968-1.04A2.542,2.542,0,0,1,49.225-6.336Zm4.873,0a2.576,2.576,0,0,1,1.369.346,2.206,2.206,0,0,1,.864,1,3.8,3.8,0,0,1,.3,1.579V0H55.616V-3.234a2.607,2.607,0,0,0-.462-1.678,1.631,1.631,0,0,0-1.342-.567,1.944,1.944,0,0,0-1.095.308,2.007,2.007,0,0,0-.72.852,2.987,2.987,0,0,0-.253,1.27l-.407-.286a3.965,3.965,0,0,1,.445-1.6,2.734,2.734,0,0,1,.968-1.04A2.521,2.521,0,0,1,54.1-6.336ZM60.742.143A2.784,2.784,0,0,1,59.306-.2a2.257,2.257,0,0,1-.9-1.007,3.665,3.665,0,0,1-.313-1.584v-3.4H59.1v3.234A2.465,2.465,0,0,0,59.6-1.293a1.811,1.811,0,0,0,1.441.567,2.192,2.192,0,0,0,1.166-.3,2.045,2.045,0,0,0,.77-.852,2.818,2.818,0,0,0,.275-1.276l.4.231A3.824,3.824,0,0,1,63.189-1.3,2.825,2.825,0,0,1,62.172-.231,2.737,2.737,0,0,1,60.742.143ZM63.591,0,63.25-2.112V-6.193h1.012v4.235L64.6,0Zm8.415-1.815a1.59,1.59,0,0,1-.357,1.034A2.283,2.283,0,0,1,70.6-.1a5.046,5.046,0,0,1-1.667.242,5.112,5.112,0,0,1-1.765-.281,2.778,2.778,0,0,1-1.194-.786A1.917,1.917,0,0,1,65.516-2.1H66.55a1.346,1.346,0,0,0,.385.753,2.1,2.1,0,0,0,.836.5,3.644,3.644,0,0,0,1.177.176,3.212,3.212,0,0,0,1.5-.291.885.885,0,0,0,.544-.8.629.629,0,0,0-.352-.589,3.885,3.885,0,0,0-1.309-.291l-1.2-.121a4.734,4.734,0,0,1-1.424-.325,1.69,1.69,0,0,1-.764-.594,1.438,1.438,0,0,1-.231-.8,1.472,1.472,0,0,1,.368-1.017,2.294,2.294,0,0,1,1.029-.627,4.951,4.951,0,0,1,1.529-.214,4.761,4.761,0,0,1,1.645.264,2.833,2.833,0,0,1,1.149.737,1.77,1.77,0,0,1,.473,1.089H70.884a1.2,1.2,0,0,0-.33-.643,1.926,1.926,0,0,0-.765-.467,3.586,3.586,0,0,0-1.2-.176,3.03,3.03,0,0,0-1.369.253.8.8,0,0,0-.49.737.642.642,0,0,0,.319.561,2.757,2.757,0,0,0,1.133.3l1.364.143a5.343,5.343,0,0,1,1.474.308,1.578,1.578,0,0,1,.764.572A1.537,1.537,0,0,1,72.006-1.815Zm1.265-4.4.506.088.506-.088V0H73.271Zm.5-.913a.754.754,0,0,1-.522-.192.629.629,0,0,1-.215-.49.617.617,0,0,1,.215-.478.754.754,0,0,1,.522-.193.764.764,0,0,1,.539.193.624.624,0,0,1,.209.478.636.636,0,0,1-.209.49A.764.764,0,0,1,73.766-7.128ZM82.5-2.354a2.616,2.616,0,0,1-.6,1.3,3.281,3.281,0,0,1-1.215.88,4.056,4.056,0,0,1-1.628.319,3.9,3.9,0,0,1-1.826-.412,3.083,3.083,0,0,1-1.238-1.144A3.181,3.181,0,0,1,75.548-3.1a3.181,3.181,0,0,1,.446-1.689,3.045,3.045,0,0,1,1.238-1.138,3.94,3.94,0,0,1,1.826-.407,4.118,4.118,0,0,1,1.628.313,3.229,3.229,0,0,1,1.215.875,2.623,2.623,0,0,1,.6,1.309H81.455a1.9,1.9,0,0,0-.82-1.216A2.738,2.738,0,0,0,79.057-5.5a2.725,2.725,0,0,0-1.3.3,2.141,2.141,0,0,0-.864.831,2.5,2.5,0,0,0-.308,1.27,2.529,2.529,0,0,0,.308,1.276A2.094,2.094,0,0,0,77.753-1a2.767,2.767,0,0,0,1.3.291,2.733,2.733,0,0,0,1.59-.451,1.872,1.872,0,0,0,.809-1.2Zm3.212-3.025v-.484l1.364-.253L87.483-7.8h.6v1.606H91.1v.814H88.088v3.146a1.535,1.535,0,0,0,.368,1.171A1.65,1.65,0,0,0,89.6-.726a2.921,2.921,0,0,0,.885-.121,3.183,3.183,0,0,0,.743-.352v.891A3.073,3.073,0,0,1,90.448,0a3.924,3.924,0,0,1-1.062.143,2.71,2.71,0,0,1-1.348-.292A1.707,1.707,0,0,1,87.3-.941a2.744,2.744,0,0,1-.226-1.138v-3.3ZM97.988,0l-.22-2.343.275-.759-.275-.748.22-2.343h1.034L98.736-3.1,99.022,0Zm.4-3.1a5.224,5.224,0,0,1-.743,1.7,3.682,3.682,0,0,1-1.21,1.138,3.094,3.094,0,0,1-1.568.407,3.139,3.139,0,0,1-1.617-.412,2.936,2.936,0,0,1-1.105-1.144,3.452,3.452,0,0,1-.4-1.689,3.444,3.444,0,0,1,.4-1.694,2.907,2.907,0,0,1,1.105-1.133,3.172,3.172,0,0,1,1.617-.407,3.094,3.094,0,0,1,1.568.407A3.755,3.755,0,0,1,97.647-4.8,4.933,4.933,0,0,1,98.384-3.1Zm-5.61,0a2.572,2.572,0,0,0,.291,1.243,2.138,2.138,0,0,0,.8.841,2.236,2.236,0,0,0,1.16.3,2.5,2.5,0,0,0,1.215-.3,3.3,3.3,0,0,0,.99-.841,4.674,4.674,0,0,0,.71-1.243,4.674,4.674,0,0,0-.71-1.243,3.3,3.3,0,0,0-.99-.841,2.5,2.5,0,0,0-1.215-.3,2.236,2.236,0,0,0-1.16.3,2.138,2.138,0,0,0-.8.841A2.572,2.572,0,0,0,92.774-3.1Zm13.805,1.287a1.59,1.59,0,0,1-.357,1.034,2.283,2.283,0,0,1-1.045.682,5.046,5.046,0,0,1-1.667.242,5.112,5.112,0,0,1-1.765-.281,2.778,2.778,0,0,1-1.194-.786,1.917,1.917,0,0,1-.462-1.177h1.034a1.346,1.346,0,0,0,.385.753,2.1,2.1,0,0,0,.836.5,3.644,3.644,0,0,0,1.177.176,3.212,3.212,0,0,0,1.5-.291.885.885,0,0,0,.544-.8.629.629,0,0,0-.352-.589,3.885,3.885,0,0,0-1.309-.291l-1.2-.121a4.734,4.734,0,0,1-1.424-.325,1.69,1.69,0,0,1-.764-.594,1.438,1.438,0,0,1-.231-.8,1.472,1.472,0,0,1,.368-1.017,2.294,2.294,0,0,1,1.029-.627,4.951,4.951,0,0,1,1.529-.214,4.761,4.761,0,0,1,1.645.264,2.833,2.833,0,0,1,1.149.737,1.77,1.77,0,0,1,.473,1.089h-1.023a1.2,1.2,0,0,0-.33-.643,1.926,1.926,0,0,0-.765-.467,3.586,3.586,0,0,0-1.2-.176,3.03,3.03,0,0,0-1.369.253.8.8,0,0,0-.49.737.642.642,0,0,0,.319.561,2.757,2.757,0,0,0,1.133.3l1.364.143a5.343,5.343,0,0,1,1.474.308,1.578,1.578,0,0,1,.764.572A1.537,1.537,0,0,1,106.579-1.815ZM107-5.379v-.484l1.364-.253.407-1.683h.6v1.606h3.014v.814h-3.014v3.146a1.535,1.535,0,0,0,.368,1.171,1.65,1.65,0,0,0,1.139.336,2.921,2.921,0,0,0,.885-.121,3.183,3.183,0,0,0,.743-.352v.891a3.073,3.073,0,0,1-.775.308,3.924,3.924,0,0,1-1.062.143,2.71,2.71,0,0,1-1.348-.292,1.707,1.707,0,0,1-.737-.792,2.744,2.744,0,0,1-.226-1.138v-3.3ZM116.644.143a4.141,4.141,0,0,1-1.887-.412,3.2,3.2,0,0,1-1.287-1.144A3.067,3.067,0,0,1,113-3.1a3.2,3.2,0,0,1,.44-1.694,3.036,3.036,0,0,1,1.221-1.133,3.824,3.824,0,0,1,1.793-.407,3.386,3.386,0,0,1,1.749.44,3,3,0,0,1,1.16,1.237,3.98,3.98,0,0,1,.412,1.854h-6.006v-.8h5.577l-.594.363a2.576,2.576,0,0,0-.33-1.2,2.054,2.054,0,0,0-.8-.781,2.427,2.427,0,0,0-1.177-.275,2.62,2.62,0,0,0-1.265.292,2.1,2.1,0,0,0-.841.819,2.458,2.458,0,0,0-.3,1.243,2.413,2.413,0,0,0,.341,1.3,2.243,2.243,0,0,0,.957.847,3.311,3.311,0,0,0,1.452.3,4.53,4.53,0,0,0,1.491-.253,4.733,4.733,0,0,0,1.314-.693v.792a4.407,4.407,0,0,1-1.364.732A4.891,4.891,0,0,1,116.644.143Z" transform="translate(195 267)" fill="#fafbfb"/>
  </g>
</svg>
