<?xml version="1.0" encoding="utf-8"?>
<!-- Generator: Adobe Illustrator 27.5.0, SVG Export Plug-In . SVG Version: 6.00 Build 0)  -->
<svg version="1.1" id="Layer_1" xmlns="http://www.w3.org/2000/svg" xmlns:xlink="http://www.w3.org/1999/xlink" x="0px" y="0px"
	 viewBox="0 0 340 340" style="enable-background:new 0 0 340 340;" xml:space="preserve">
<style type="text/css">
	.st0{fill:#2B2936;}
	.st1{fill:#6862C8;}
	.st2{fill:#202037;}
</style>
<g id="Group_19" transform="translate(-25 -205)">
	<path id="Rectangle_6986_00000060722793952116197330000003131831593388367236_" class="st0" d="M35,205h320c5.5,0,10,4.5,10,10v320
		c0,5.5-4.5,10-10,10H35c-5.5,0-10-4.5-10-10V215C25,209.5,29.5,205,35,205z"/>
	<path id="Path_1_00000029755811599863697860000004949351921325083811_" class="st1" d="M197.2,335.1c-1.8-2.4-5.2-3-7.6-1.2
		c-0.5,0.3-0.8,0.7-1.2,1.2l-12.6,19l-2.8-3.9c-1.8-2.4-5.2-2.8-7.5-1c-0.4,0.3-0.7,0.6-1,1l-11.1,15.3c-1.2,1.6-1.3,3.7-0.4,5.5
		c0.9,1.8,2.7,2.9,4.7,2.9H213c2,0,3.8-1.1,4.7-2.8c0.9-1.7,0.8-3.8-0.3-5.4L197.2,335.1z M157.8,368.5l10.7-15l5.1,7.1
		c0.5,0.8,1.4,1.2,2.3,1.1c0.9,0,1.7-0.5,2.2-1.2l14.4-22.3l20.1,30.3H157.8z M218.2,313.5h-66c-6,0.1-10.9,5-10.8,11v55
		c0,6,4.8,10.9,10.8,11h66c6.1,0,11-4.9,11-11v-55c0.1-6-4.8-10.9-10.8-11C218.3,313.5,218.2,313.5,218.2,313.5L218.2,313.5z
		 M223.8,379.5c0,3-2.5,5.5-5.5,5.5h-66c-3,0-5.5-2.5-5.5-5.5v-55c0-3,2.5-5.5,5.5-5.5h66c3,0,5.5,2.5,5.5,5.5V379.5z M166.1,341
		c4.6,0,8.2-3.7,8.2-8.2c0-4.6-3.7-8.2-8.2-8.2c-4.6,0-8.2,3.7-8.2,8.2C157.8,337.3,161.5,341,166.1,341z M166.1,330
		c1.4,0,2.6,1.2,2.6,2.6c0,0,0,0.1,0,0.1c0.1,1.4-1.1,2.7-2.5,2.7c0,0-0.1,0-0.1,0c-1.5,0-2.7-1.2-2.8-2.8
		C163.3,331.2,164.6,330,166.1,330z"/>
	<g id="Group_3" transform="translate(-48.666 179.971)">
		<rect id="Rectangle_7020" x="265" y="186" class="st2" width="28" height="22"/>
		<path id="Path_4" class="st1" d="M279,215.8c10.5,0,19-8.5,19-19s-8.5-19-19-19s-19,8.5-19,19S268.5,215.8,279,215.8z
			 M277.2,203.3v-4.8h-4.8c-1,0-1.8-0.8-1.8-1.8c0,0,0,0,0,0c0-1,0.8-1.8,1.8-1.8c0,0,0,0,0,0h4.8v-4.8c0-1,0.8-1.8,1.8-1.8
			c0,0,0,0,0,0c1,0,1.8,0.8,1.8,1.8c0,0,0,0,0,0v4.8h4.8c1,0,1.8,0.8,1.8,1.8c0,0,0,0,0,0c0,1-0.8,1.8-1.8,1.8c0,0,0,0,0,0h-4.8v4.8
			c0,1-0.8,1.8-1.8,1.8c0,0,0,0,0,0C278,205.1,277.2,204.3,277.2,203.3C277.2,203.3,277.2,203.3,277.2,203.3z"/>
	</g>
	<path id="Path_225" class="st1" d="M124.5,417c-0.3-0.2-0.6-0.3-0.9-0.4c-0.3-0.1-0.7-0.2-1-0.2c-0.3,0-0.6-0.1-0.8-0.1
		c-0.7,0-1.5,0.1-2.1,0.4c-0.6,0.3-1.2,0.7-1.6,1.2c-0.5,0.5-0.8,1.2-1,1.8c-0.2,0.7-0.4,1.5-0.4,2.3c0,0.7,0.1,1.4,0.3,2.1
		c0.2,0.7,0.5,1.3,0.9,1.8c0.4,0.5,1,0.9,1.6,1.2c0.7,0.3,1.4,0.5,2.2,0.4c0.3,0,0.7,0,1-0.1c0.3-0.1,0.7-0.1,1-0.2
		c0.3-0.1,0.6-0.2,0.8-0.3l-0.5-0.9c-0.3,0.1-0.7,0.2-1,0.3c-0.5,0.1-0.9,0.2-1.4,0.1c-1.1,0-2.1-0.5-2.7-1.3
		c-0.3-0.4-0.6-0.9-0.7-1.4c-0.2-0.6-0.2-1.2-0.2-1.7c0-0.8,0.2-1.6,0.5-2.4c0.3-0.7,0.8-1.2,1.4-1.6c0.6-0.4,1.2-0.6,1.9-0.6
		c0.3,0,0.6,0,0.9,0.1c0.2,0,0.5,0.1,0.7,0.2c0.2,0.1,0.4,0.1,0.7,0.2L124.5,417z M127.3,427.5v-11.3l-1.2,0.2v11.1H127.3z
		 M130.7,427.5v-7.8h-1.3v7.8H130.7z M130.1,418.2c0.2,0,0.4-0.1,0.6-0.2c0.2-0.2,0.3-0.4,0.3-0.6c0-0.2-0.1-0.5-0.3-0.6
		c-0.2-0.2-0.4-0.2-0.6-0.2c-0.2,0-0.4,0.1-0.6,0.2c-0.3,0.3-0.3,0.9,0,1.2C129.6,418.1,129.8,418.2,130.1,418.2z M138.1,426.1
		c-0.3,0.1-0.6,0.3-0.9,0.4c-0.4,0.1-0.8,0.2-1.2,0.2c-0.5,0-1-0.1-1.4-0.4c-0.4-0.3-0.7-0.7-0.8-1.1c-0.2-0.5-0.3-1-0.3-1.6
		c0-0.5,0.1-1,0.3-1.5c0.2-0.4,0.5-0.8,0.9-1.1c0.4-0.3,0.9-0.4,1.3-0.4c0.4,0,0.8,0,1.2,0.2c0.3,0.1,0.6,0.2,0.9,0.4l0.4-0.9
		c-0.2-0.2-0.5-0.3-0.8-0.4c-0.3-0.1-0.6-0.2-0.9-0.2c-0.3-0.1-0.5-0.1-0.8-0.1c-0.7,0-1.4,0.2-2,0.5c-0.6,0.3-1,0.8-1.3,1.4
		c-0.3,0.7-0.5,1.4-0.5,2.1c0,0.7,0.1,1.5,0.4,2.1c0.3,0.6,0.7,1.1,1.3,1.4c0.6,0.4,1.3,0.5,2,0.5c0.3,0,0.5,0,0.8-0.1
		c0.3-0.1,0.6-0.1,0.9-0.2c0.3-0.1,0.6-0.2,0.8-0.4L138.1,426.1z M141.5,427.5v-2.9l1.1-1.1l2.6,4h1.5l-3.2-4.8l2.4-2.3l-0.8-0.8
		l-3.5,3.5v-6.9l-1.2,0.2v11.1H141.5z M154.4,419.9H153v-2.3l-1.3,0.4v2h-1.1l0,1h1.1v4.7c0,0.4,0.1,0.9,0.3,1.2
		c0.2,0.3,0.4,0.6,0.8,0.8c0.4,0.2,0.8,0.3,1.2,0.3c0.2,0,0.3,0,0.4,0c0.1,0,0.3-0.1,0.4-0.1c0.1,0,0.2-0.1,0.3-0.1l-0.3-1
		c-0.1,0-0.2,0.1-0.3,0.1c-0.1,0-0.3,0.1-0.4,0.1c-0.3,0-0.6-0.1-0.8-0.4c-0.2-0.3-0.3-0.6-0.3-1v-4.5h1.8L154.4,419.9z
		 M159.7,427.7c-1.4,0.1-2.7-0.7-3.3-2c-0.3-0.7-0.5-1.4-0.4-2.1c0-0.7,0.2-1.4,0.5-2.1c0.3-0.6,0.7-1.1,1.3-1.4
		c1.2-0.7,2.8-0.7,4,0c0.6,0.3,1,0.8,1.3,1.4c0.3,0.7,0.5,1.4,0.4,2.2c0,0.7-0.1,1.4-0.5,2.1c-0.3,0.6-0.8,1.1-1.3,1.4
		C161.1,427.6,160.4,427.8,159.7,427.7z M159.7,426.7c0.5,0,1-0.1,1.4-0.4c0.4-0.3,0.7-0.6,0.9-1.1c0.2-0.5,0.3-1,0.3-1.5
		c0-0.5-0.1-1.1-0.3-1.6c-0.2-0.4-0.4-0.8-0.8-1.1c-0.4-0.3-0.9-0.4-1.4-0.4c-0.5,0-1,0.1-1.3,0.4c-0.4,0.3-0.7,0.6-0.9,1.1
		c-0.2,0.5-0.3,1-0.3,1.5c0,0.5,0.1,1.1,0.3,1.6c0.2,0.4,0.4,0.8,0.8,1.1C158.7,426.5,159.2,426.7,159.7,426.7L159.7,426.7z
		 M173.9,419.8v5.5c-0.2,0.3-0.5,0.5-0.8,0.7c-0.3,0.2-0.6,0.4-0.9,0.5c-0.3,0.1-0.6,0.2-0.9,0.2c-0.4,0-0.8-0.2-1.1-0.5
		c-0.2-0.4-0.3-0.9-0.3-1.3v-5.1h-1.2v5.2c0,0.5,0.1,1,0.2,1.4c0.2,0.4,0.4,0.7,0.8,1c0.4,0.2,0.9,0.4,1.4,0.4c0.4,0,0.7-0.1,1-0.2
		c0.7-0.2,1.3-0.6,1.9-1.2l0.2,1.1h0.9v-7.8L173.9,419.8z M178.6,430.9v-10.1l-0.5-1h-0.8V431L178.6,430.9z M178.2,421.8
		c0.3-0.3,0.6-0.6,1-0.8c0.4-0.2,0.8-0.3,1.3-0.3c0.5,0,0.9,0.1,1.3,0.4c0.4,0.3,0.6,0.6,0.8,1.1c0.2,0.5,0.3,1,0.3,1.6
		c0,0.5-0.1,1-0.3,1.5c-0.2,0.4-0.4,0.8-0.8,1.1c-0.4,0.3-0.9,0.4-1.3,0.4c-0.4,0-0.9-0.1-1.3-0.3c-0.4-0.2-0.7-0.5-1-0.8l-0.4,0.9
		c0.2,0.3,0.5,0.5,0.8,0.7c0.3,0.2,0.6,0.3,0.9,0.4c0.3,0.1,0.6,0.2,0.9,0.2c0.7,0,1.4-0.2,2-0.5c0.6-0.3,1-0.8,1.3-1.4
		c0.3-0.7,0.5-1.4,0.5-2.1c0-0.7-0.1-1.5-0.4-2.2c-0.3-0.6-0.7-1.1-1.3-1.4c-0.6-0.4-1.3-0.5-2-0.5c-0.3,0-0.6,0.1-0.9,0.1
		c-0.3,0.1-0.6,0.2-0.9,0.4c-0.3,0.2-0.6,0.4-0.8,0.7L178.2,421.8z M187,427.5v-11.3l-1.2,0.2v11.1H187z M192.4,427.7
		c-1.4,0.1-2.7-0.7-3.3-2c-0.3-0.7-0.5-1.4-0.4-2.1c0-0.7,0.2-1.4,0.5-2.1c0.3-0.6,0.7-1.1,1.3-1.4c1.2-0.7,2.8-0.7,4,0
		c0.6,0.3,1,0.8,1.3,1.4c0.3,0.7,0.5,1.4,0.4,2.2c0,0.7-0.1,1.4-0.5,2.1c-0.3,0.6-0.8,1.1-1.3,1.4
		C193.8,427.6,193.1,427.8,192.4,427.7z M192.4,426.7c0.5,0,1-0.1,1.4-0.4c0.4-0.3,0.7-0.6,0.9-1.1c0.2-0.5,0.3-1,0.3-1.5
		c0-0.5-0.1-1.1-0.3-1.6c-0.2-0.4-0.4-0.8-0.8-1.1c-0.4-0.3-0.9-0.4-1.4-0.4c-0.5,0-1,0.1-1.3,0.4c-0.4,0.3-0.7,0.6-0.9,1.1
		c-0.2,0.5-0.3,1-0.3,1.5c0,0.5,0.1,1.1,0.3,1.6c0.2,0.4,0.4,0.8,0.8,1.1C191.5,426.5,192,426.7,192.4,426.7L192.4,426.7z
		 M198.7,425.3c0-0.4,0.1-0.8,0.4-1.1c0.3-0.3,0.7-0.5,1.2-0.5h2v1.8c-0.3,0.3-0.6,0.6-1,0.8c-0.4,0.2-0.8,0.3-1.2,0.3
		c-0.3,0-0.6-0.1-0.8-0.2c-0.2-0.1-0.4-0.3-0.5-0.5C198.8,425.8,198.7,425.5,198.7,425.3L198.7,425.3z M198.4,421.2
		c0.3-0.1,0.6-0.2,1-0.4c0.4-0.1,0.8-0.2,1.3-0.2c0.5-0.1,1,0.1,1.3,0.5c0.3,0.4,0.4,0.9,0.4,1.3v0.4h-2c-0.7,0-1.4,0.2-2,0.6
		c-0.5,0.4-0.8,1.1-0.8,1.8c0,0.6,0.2,1.3,0.7,1.7c0.5,0.5,1.3,0.7,2,0.7c0.4,0,0.9-0.1,1.3-0.3c0.4-0.2,0.7-0.4,1-0.7l0.2,0.8h1
		v-5.3c0-0.5-0.1-1-0.4-1.4c-0.3-0.4-0.6-0.7-1.1-0.9c-0.5-0.2-1-0.3-1.6-0.3c-0.3,0-0.5,0-0.8,0.1c-0.3,0.1-0.7,0.1-1,0.2
		c-0.3,0.1-0.5,0.2-0.8,0.4L198.4,421.2z M210.6,426.3l0.5,1.2h0.8v-11.3l-1.3,0.2L210.6,426.3z M211,425.5c-0.3,0.3-0.6,0.6-1,0.8
		c-0.4,0.2-0.8,0.3-1.2,0.3c-0.5,0-0.9-0.1-1.3-0.4c-0.4-0.3-0.6-0.7-0.8-1.1c-0.2-0.5-0.3-1-0.3-1.6c0-0.5,0.1-1,0.3-1.5
		c0.2-0.4,0.4-0.8,0.8-1.1c0.4-0.3,0.9-0.4,1.3-0.4c0.4,0,0.9,0.1,1.3,0.3c0.4,0.2,0.7,0.5,1,0.8l0.4-0.9c-0.2-0.3-0.5-0.5-0.8-0.7
		c-0.3-0.2-0.6-0.3-0.9-0.4c-0.3-0.1-0.6-0.2-0.9-0.2c-0.7,0-1.4,0.2-2,0.5c-0.6,0.3-1,0.8-1.3,1.4c-0.3,0.7-0.5,1.4-0.4,2.1
		c0,0.7,0.1,1.5,0.4,2.1c0.3,0.6,0.7,1.1,1.3,1.4c0.6,0.4,1.3,0.5,2,0.5c0.3,0,0.6-0.1,0.9-0.1c0.3-0.1,0.6-0.3,0.9-0.4
		c0.3-0.2,0.6-0.4,0.8-0.7L211,425.5z M218.7,425.3c0-0.4,0.1-0.8,0.4-1.1c0.3-0.3,0.7-0.5,1.2-0.5h2v1.8c-0.3,0.3-0.6,0.6-1,0.8
		c-0.4,0.2-0.8,0.3-1.2,0.3c-0.3,0-0.6-0.1-0.8-0.2c-0.2-0.1-0.4-0.3-0.5-0.5C218.8,425.8,218.7,425.5,218.7,425.3L218.7,425.3z
		 M218.4,421.2c0.3-0.1,0.6-0.2,1-0.4c0.4-0.1,0.8-0.2,1.3-0.2c0.5-0.1,1,0.1,1.3,0.5c0.3,0.4,0.4,0.9,0.4,1.3v0.4h-2
		c-0.7,0-1.4,0.2-2,0.6c-0.5,0.4-0.8,1.1-0.8,1.8c0,0.6,0.2,1.3,0.7,1.7c0.5,0.5,1.3,0.7,2,0.7c0.4,0,0.9-0.1,1.3-0.3
		c0.4-0.2,0.7-0.4,1-0.7l0.2,0.8h1v-5.3c0-0.5-0.1-1-0.4-1.4c-0.3-0.4-0.6-0.7-1.1-0.9c-0.5-0.2-1-0.3-1.6-0.3c-0.3,0-0.5,0-0.8,0.1
		c-0.3,0.1-0.7,0.1-1,0.2c-0.3,0.1-0.5,0.2-0.8,0.4L218.4,421.2z M230.7,430.9v-10.1l-0.5-1h-0.8V431L230.7,430.9z M230.3,421.8
		c0.3-0.3,0.6-0.6,1-0.8c0.4-0.2,0.8-0.3,1.3-0.3c0.5,0,0.9,0.1,1.3,0.4c0.4,0.3,0.6,0.6,0.8,1.1c0.2,0.5,0.3,1,0.3,1.6
		c0,0.5-0.1,1-0.3,1.5c-0.2,0.4-0.4,0.8-0.8,1.1c-0.4,0.3-0.9,0.4-1.3,0.4c-0.4,0-0.9-0.1-1.3-0.3c-0.4-0.2-0.7-0.5-1-0.8l-0.4,0.9
		c0.2,0.3,0.5,0.5,0.8,0.7c0.3,0.2,0.6,0.3,0.9,0.4c0.3,0.1,0.6,0.2,0.9,0.2c0.7,0,1.4-0.2,2-0.5c0.6-0.3,1-0.8,1.3-1.4
		c0.3-0.7,0.5-1.4,0.5-2.1c0-0.7-0.1-1.5-0.4-2.2c-0.3-0.6-0.7-1.1-1.3-1.4c-0.6-0.4-1.3-0.5-2-0.5c-0.3,0-0.6,0.1-0.9,0.1
		c-0.3,0.1-0.6,0.2-0.9,0.4c-0.3,0.2-0.6,0.4-0.8,0.7L230.3,421.8z M239,427.5v-7.8h-1.3v7.8H239z M238.3,418.2
		c0.2,0,0.4-0.1,0.6-0.2c0.2-0.2,0.3-0.4,0.3-0.6c0-0.2-0.1-0.5-0.3-0.6c-0.2-0.2-0.4-0.2-0.6-0.2c-0.2,0-0.4,0.1-0.6,0.2
		c-0.3,0.3-0.3,0.9,0,1.2C237.9,418.1,238.1,418.2,238.3,418.2L238.3,418.2z M246.4,426.1c-0.3,0.1-0.6,0.3-0.9,0.4
		c-0.4,0.1-0.8,0.2-1.2,0.2c-0.5,0-1-0.1-1.4-0.4c-0.4-0.3-0.7-0.7-0.8-1.1c-0.2-0.5-0.3-1-0.3-1.6c0-0.5,0.1-1,0.3-1.5
		c0.2-0.4,0.5-0.8,0.9-1.1c0.4-0.3,0.9-0.4,1.3-0.4c0.4,0,0.8,0,1.2,0.2c0.3,0.1,0.6,0.2,0.9,0.4l0.4-0.9c-0.2-0.2-0.5-0.3-0.8-0.4
		c-0.3-0.1-0.6-0.2-0.9-0.2c-0.3-0.1-0.5-0.1-0.8-0.1c-0.7,0-1.4,0.2-2,0.5c-0.6,0.3-1,0.8-1.3,1.4c-0.3,0.7-0.5,1.4-0.5,2.1
		c0,0.7,0.1,1.5,0.4,2.1c0.3,0.6,0.7,1.1,1.3,1.4c0.6,0.4,1.3,0.5,2,0.5c0.3,0,0.5,0,0.8-0.1c0.3-0.1,0.6-0.1,0.9-0.2
		c0.3-0.1,0.6-0.2,0.8-0.4L246.4,426.1z M251.4,419.9H250v-2.3l-1.3,0.4v2h-1.1l0,1h1.1v4.7c0,0.4,0.1,0.9,0.3,1.2
		c0.2,0.3,0.4,0.6,0.8,0.8c0.4,0.2,0.8,0.3,1.2,0.3c0.2,0,0.3,0,0.4,0c0.1,0,0.3-0.1,0.4-0.1c0.1,0,0.2-0.1,0.3-0.1l-0.3-1
		c-0.1,0-0.2,0.1-0.3,0.1c-0.1,0-0.3,0.1-0.4,0.1c-0.3,0-0.6-0.1-0.8-0.4c-0.2-0.3-0.3-0.6-0.3-1v-4.5h1.8L251.4,419.9z
		 M258.6,419.8v5.5c-0.2,0.3-0.5,0.5-0.8,0.7c-0.3,0.2-0.6,0.4-0.9,0.5c-0.3,0.1-0.6,0.2-0.9,0.2c-0.4,0-0.8-0.2-1.1-0.5
		c-0.2-0.4-0.3-0.9-0.3-1.3v-5.1h-1.3v5.2c0,0.5,0.1,1,0.2,1.4c0.2,0.4,0.4,0.7,0.8,1c0.4,0.2,0.9,0.4,1.4,0.4c0.4,0,0.7-0.1,1-0.2
		c0.7-0.2,1.3-0.6,1.9-1.2l0.2,1.1h0.9v-7.8L258.6,419.8z M263.1,427.5v-5.3c0.3-0.2,0.5-0.5,0.8-0.7c0.3-0.2,0.6-0.4,1-0.5
		c0.3-0.1,0.6-0.2,1-0.2l-0.3-1c-0.3,0-0.6,0.1-0.9,0.2c-0.3,0.1-0.6,0.3-0.9,0.5c-0.3,0.2-0.5,0.4-0.7,0.5l-0.4-1.2h-0.8v7.8H263.1
		z M273.5,423.8v-0.1c0-0.7-0.1-1.4-0.3-2.1c-0.2-0.6-0.6-1.1-1.1-1.5c-0.6-0.4-1.2-0.6-1.9-0.6c-0.7,0-1.4,0.2-2,0.5
		c-0.5,0.3-1,0.8-1.2,1.4c-0.3,0.7-0.4,1.4-0.4,2.1c0,0.7,0.1,1.5,0.4,2.1c0.3,0.6,0.8,1.1,1.4,1.4c0.7,0.4,1.5,0.5,2.3,0.5
		c0.4,0,0.7,0,1.1-0.1c0.3-0.1,0.6-0.2,0.9-0.3c0.3-0.1,0.5-0.2,0.8-0.4L273,426c-0.4,0.2-0.8,0.4-1.2,0.5c-0.4,0.1-0.8,0.2-1.2,0.2
		c-0.5,0-1.1-0.1-1.6-0.4c-0.4-0.2-0.7-0.6-0.9-1c-0.2-0.5-0.3-1-0.3-1.5L273.5,423.8z M267.9,423c0-0.4,0.2-0.8,0.3-1.2
		c0.2-0.3,0.4-0.6,0.7-0.8c0.4-0.2,0.8-0.3,1.2-0.3c0.4,0,0.8,0.1,1.1,0.3c0.3,0.2,0.5,0.5,0.7,0.8c0.2,0.4,0.3,0.8,0.3,1.2H267.9z"
		/>
</g>
</svg>
