<?xml version="1.0" encoding="utf-8"?>
<!-- Generator: Adobe Illustrator 27.5.0, SVG Export Plug-In . SVG Version: 6.00 Build 0)  -->
<svg version="1.1" id="Layer_1" xmlns="http://www.w3.org/2000/svg" xmlns:xlink="http://www.w3.org/1999/xlink" x="0px" y="0px"
	 viewBox="0 0 340 340" style="enable-background:new 0 0 340 340;" xml:space="preserve">
<style type="text/css">
	.st0{fill:#F3F2F7;}
	.st1{fill:#C8C4D9;}
</style>
<g id="Group_13" transform="translate(-25 -182)">
	<path id="Rectangle_6986" class="st0" d="M30,182h330c2.8,0,5,2.2,5,5v330c0,2.8-2.2,5-5,5H30c-2.8,0-5-2.2-5-5V187
		C25,184.2,27.2,182,30,182z"/>
	<path id="Path_1" class="st1" d="M196.8,335.1c-1.8-2.4-5.2-3-7.6-1.2c-0.5,0.3-0.8,0.7-1.2,1.2l-12.6,19l-2.8-3.9
		c-1.8-2.4-5.2-2.8-7.5-1c-0.4,0.3-0.7,0.6-1,1L153,365.6c-1.2,1.6-1.3,3.7-0.4,5.5c0.9,1.8,2.7,2.9,4.7,2.9h55.4
		c2,0,3.8-1.1,4.7-2.8c0.9-1.7,0.8-3.8-0.3-5.4L196.8,335.1z M157.5,368.5l10.7-15l5.1,7.1c0.5,0.8,1.4,1.2,2.3,1.1
		c0.9,0,1.7-0.5,2.2-1.2l14.4-22.3l20.1,30.3H157.5z M217.8,313.5h-66c-6,0.1-10.9,5-10.8,11v55c0,6,4.8,10.9,10.8,11h66
		c6.1,0,11-4.9,11-11v-55c0.1-6-4.8-10.9-10.8-11C218,313.5,217.9,313.5,217.8,313.5L217.8,313.5z M223.5,379.5c0,3-2.5,5.5-5.5,5.5
		h-66c-3,0-5.5-2.5-5.5-5.5v-55c0-3,2.5-5.5,5.5-5.5h66c3,0,5.5,2.5,5.5,5.5V379.5z M165.8,341c4.6,0,8.2-3.7,8.2-8.2
		c0-4.6-3.7-8.2-8.2-8.2c-4.6,0-8.2,3.7-8.2,8.2C157.5,337.3,161.2,341,165.8,341z M165.8,330c1.4,0,2.6,1.2,2.6,2.6v0.1
		c0.1,1.4-1.1,2.7-2.5,2.7h-0.1c-1.5,0-2.7-1.2-2.8-2.8C163,331.2,164.2,330,165.8,330z"/>
	<path id="Path_3" class="st1" d="M101.7,431.6c-0.1,0.9-0.4,1.7-1,2.4c-0.5,0.7-1.3,1.3-2.1,1.6c-0.9,0.4-2,0.6-3,0.6
		c-1.1,0-2.2-0.2-3.2-0.7c-0.9-0.4-1.6-1.1-2.1-1.9c-0.5-0.9-0.8-1.9-0.8-2.9s0.2-2,0.8-2.9c0.5-0.8,1.3-1.5,2.1-1.9
		c1-0.5,2.1-0.7,3.2-0.7c1,0,2,0.2,3,0.6c0.8,0.4,1.5,0.9,2.1,1.6c0.5,0.7,0.9,1.5,1,2.4h-2.9c-0.1-0.4-0.3-0.8-0.5-1.1
		c-0.3-0.3-0.7-0.6-1.1-0.7c-0.5-0.2-1-0.3-1.5-0.3c-0.6,0-1.2,0.1-1.7,0.4c-0.5,0.2-0.8,0.6-1.1,1c-0.3,0.5-0.4,1-0.4,1.6
		s0.1,1.1,0.4,1.6c0.3,0.4,0.6,0.8,1.1,1s1.1,0.4,1.7,0.4c0.5,0,1-0.1,1.5-0.2c0.4-0.1,0.8-0.4,1.1-0.7c0.3-0.3,0.5-0.7,0.5-1.2
		L101.7,431.6L101.7,431.6z M102.9,425.2h2.9V436h-2.9V425.2z M107.3,427.9l1.4,0.3l1.4-0.3v8.1h-2.9L107.3,427.9L107.3,427.9z
		 M108.8,427.2c-0.4,0-0.9-0.1-1.2-0.4c-0.3-0.2-0.5-0.6-0.5-1s0.2-0.8,0.5-1c0.7-0.5,1.7-0.5,2.4,0c0.3,0.2,0.5,0.6,0.5,1
		s-0.2,0.8-0.5,1C109.6,427.1,109.2,427.2,108.8,427.2z M121.3,432.6c-0.1,0.7-0.3,1.4-0.8,1.9c-0.5,0.6-1.1,1-1.7,1.3
		c-0.8,0.3-1.6,0.5-2.4,0.4c-0.9,0-1.8-0.2-2.6-0.5c-0.7-0.3-1.3-0.8-1.8-1.5c-0.4-0.7-0.6-1.4-0.6-2.2c0-0.8,0.2-1.5,0.6-2.2
		c0.4-0.6,1-1.2,1.8-1.5c0.8-0.4,1.7-0.6,2.6-0.5c0.8,0,1.6,0.1,2.4,0.5c0.7,0.3,1.3,0.7,1.7,1.3c0.4,0.5,0.7,1.2,0.8,1.9h-2.8
		c-0.1-0.4-0.3-0.8-0.7-1.1c-0.7-0.5-1.7-0.5-2.5-0.1c-0.3,0.2-0.6,0.4-0.7,0.7c-0.2,0.4-0.3,0.8-0.3,1.2c0,0.4,0.1,0.8,0.3,1.1
		c0.2,0.3,0.4,0.6,0.7,0.7c0.3,0.2,0.7,0.3,1.1,0.2c0.5,0,1-0.1,1.4-0.4s0.6-0.6,0.7-1.1L121.3,432.6z M125.3,433.7l-0.8-0.3
		l4.4-5.4h3l-7,8h-2.6v-10.8h2.9L125.3,433.7z M126.7,432.1l2.2-1.5l3.4,5.4H129L126.7,432.1z M135.3,430.1v-1.2l1.6-0.7l1.2-2.4
		h1.6v2.2h3.4v2.1h-3.4v2.4c0,0.4,0.1,0.9,0.3,1.2c0.4,0.3,0.8,0.4,1.3,0.4c0.4,0,0.7,0,1-0.1s0.6-0.2,0.8-0.3v2.2
		c-0.4,0.1-0.7,0.2-1.1,0.3c-0.5,0.1-0.9,0.1-1.4,0.1c-0.7,0-1.5-0.1-2.2-0.4c-0.5-0.2-1-0.7-1.3-1.2c-0.3-0.6-0.4-1.2-0.4-1.8v-2.7
		h-1.4V430.1z M148.9,436.2c-0.9,0-1.8-0.2-2.7-0.5c-0.7-0.3-1.3-0.8-1.8-1.5c-0.4-0.7-0.7-1.4-0.6-2.2c0-0.8,0.2-1.6,0.6-2.2
		c0.4-0.7,1.1-1.2,1.8-1.5c1.7-0.7,3.6-0.7,5.4,0c0.7,0.3,1.3,0.8,1.8,1.5c0.4,0.7,0.7,1.4,0.6,2.2c0,0.8-0.2,1.5-0.6,2.2
		c-0.4,0.7-1.1,1.2-1.8,1.5C150.8,436.1,149.9,436.2,148.9,436.2L148.9,436.2z M148.9,434.1c0.4,0,0.8-0.1,1.2-0.3
		c0.3-0.2,0.6-0.4,0.8-0.7c0.2-0.3,0.3-0.7,0.3-1.1s-0.1-0.8-0.3-1.1c-0.2-0.3-0.4-0.6-0.8-0.7c-0.4-0.2-0.8-0.3-1.2-0.3
		s-0.8,0.1-1.2,0.3c-0.3,0.2-0.6,0.4-0.8,0.7c-0.2,0.3-0.3,0.7-0.3,1.1s0.1,0.8,0.3,1.1c0.2,0.3,0.4,0.6,0.8,0.7
		C148.1,434,148.5,434.1,148.9,434.1L148.9,434.1z M162.2,436.2c-0.7,0-1.3-0.1-1.9-0.5c-0.5-0.3-0.9-0.8-1.2-1.3
		c-0.3-0.6-0.4-1.3-0.4-2V428h2.9v4.1c0,0.5,0.1,1,0.4,1.4c0.3,0.3,0.8,0.5,1.2,0.5s0.7-0.1,1-0.2c0.3-0.2,0.5-0.4,0.6-0.7
		c0.2-0.3,0.2-0.7,0.2-1.1l0.9,0.5c-0.1,0.8-0.3,1.5-0.7,2.1c-0.3,0.5-0.8,1-1.3,1.3C163.4,436.1,162.8,436.2,162.2,436.2
		L162.2,436.2z M165.6,436l-0.5-3.2V428h2.9v5.2l0.5,2.8H165.6z M169.6,428h2.9v2.3l-0.1,0.3v2.2l0.1,0.7v4.8h-2.9V428z M171.6,432
		c0.1-0.8,0.4-1.6,0.8-2.2c0.4-0.6,0.9-1.1,1.5-1.5c1.3-0.7,2.8-0.7,4.1,0c0.6,0.4,1.1,0.9,1.4,1.5c0.3,0.7,0.5,1.5,0.5,2.2
		c0,0.8-0.2,1.5-0.5,2.2c-0.3,0.6-0.8,1.1-1.4,1.5c-0.6,0.4-1.3,0.5-2.1,0.5c-0.7,0-1.4-0.2-2-0.5c-0.6-0.4-1.1-0.9-1.5-1.5
		C171.9,433.5,171.7,432.8,171.6,432L171.6,432z M176.9,432c0-0.4-0.1-0.7-0.2-1.1c-0.2-0.3-0.4-0.6-0.7-0.7c-0.3-0.2-0.6-0.3-1-0.3
		s-0.8,0.1-1.1,0.3c-0.3,0.2-0.7,0.4-0.9,0.7c-0.3,0.3-0.5,0.7-0.6,1.1c0.1,0.4,0.3,0.7,0.6,1s0.6,0.5,0.9,0.7
		c0.3,0.2,0.7,0.3,1.1,0.3c0.4,0,0.7-0.1,1-0.3c0.3-0.2,0.5-0.4,0.7-0.7C176.8,432.7,176.9,432.4,176.9,432L176.9,432z M181,425.2
		h2.9V436H181V425.2z M190.2,436.2c-0.9,0-1.8-0.2-2.7-0.5c-0.7-0.3-1.3-0.8-1.8-1.5c-0.4-0.7-0.7-1.4-0.6-2.2
		c0-0.8,0.2-1.6,0.6-2.2c0.4-0.6,1.1-1.2,1.8-1.5c1.7-0.7,3.6-0.7,5.4,0c0.7,0.3,1.3,0.8,1.8,1.5c0.4,0.7,0.7,1.4,0.6,2.2
		c0,0.8-0.2,1.5-0.6,2.2c-0.4,0.7-1.1,1.2-1.8,1.5C192.1,436.1,191.1,436.2,190.2,436.2L190.2,436.2z M190.2,434.1
		c0.4,0,0.8-0.1,1.2-0.3c0.3-0.2,0.6-0.4,0.8-0.7c0.2-0.3,0.3-0.7,0.3-1.1s-0.1-0.8-0.3-1.1c-0.2-0.3-0.4-0.6-0.8-0.7
		c-0.4-0.2-0.8-0.3-1.2-0.3s-0.8,0.1-1.2,0.3c-0.3,0.2-0.6,0.4-0.8,0.7c-0.2,0.3-0.3,0.7-0.3,1.1s0.1,0.8,0.3,1.1
		c0.2,0.3,0.4,0.6,0.8,0.7C189.4,434,189.8,434.1,190.2,434.1L190.2,434.1z M203.8,436l-0.4-2.9l0.4-1.1l-0.4-1.1l0.4-2.9h3l-0.5,4
		l0.5,4H203.8z M204.4,432c-0.1,0.8-0.4,1.5-0.8,2.2c-0.4,0.6-0.9,1.1-1.5,1.5s-1.3,0.5-2,0.5s-1.4-0.2-2.1-0.5
		c-0.6-0.4-1.1-0.9-1.4-1.5c-0.3-0.7-0.5-1.4-0.5-2.2c0-0.8,0.2-1.5,0.5-2.2c0.3-0.6,0.8-1.1,1.4-1.5c0.6-0.4,1.3-0.5,2.1-0.5
		c0.7,0,1.4,0.2,2,0.5c0.6,0.4,1.1,0.9,1.5,1.5C204.1,430.4,204.4,431.2,204.4,432z M199.1,432c0,0.4,0.1,0.7,0.2,1
		c0.2,0.3,0.4,0.5,0.7,0.7s0.6,0.3,1,0.3s0.8-0.1,1.1-0.3c0.3-0.2,0.7-0.4,0.9-0.7c0.3-0.3,0.5-0.7,0.6-1c-0.1-0.4-0.3-0.8-0.6-1.1
		c-0.3-0.3-0.6-0.5-0.9-0.7c-0.3-0.2-0.7-0.3-1.1-0.3c-0.7,0-1.4,0.4-1.7,1C199.2,431.3,199.1,431.6,199.1,432z M215.3,436l-0.4-3
		l0.5-1l-0.5-1.2l0.7-5.6h3l-0.8,6.6l0.5,4.2H215.3z M216,432c-0.1,0.8-0.4,1.5-0.8,2.2c-0.4,0.6-0.9,1.1-1.5,1.5s-1.3,0.5-2,0.5
		s-1.4-0.2-2.1-0.5c-0.6-0.4-1.1-0.9-1.4-1.5c-0.3-0.7-0.5-1.4-0.5-2.2c0-0.8,0.2-1.5,0.5-2.2c0.3-0.6,0.8-1.1,1.4-1.5
		c0.6-0.4,1.3-0.5,2.1-0.5c0.7,0,1.4,0.2,2,0.5c0.6,0.4,1.1,0.9,1.5,1.5C215.6,430.4,215.9,431.2,216,432z M210.6,432
		c0,0.4,0.1,0.7,0.2,1c0.2,0.3,0.4,0.5,0.7,0.7s0.6,0.3,1,0.3s0.8-0.1,1.1-0.3c0.3-0.2,0.7-0.4,0.9-0.7c0.3-0.3,0.5-0.7,0.6-1
		c-0.1-0.4-0.3-0.8-0.6-1.1c-0.3-0.3-0.6-0.5-0.9-0.7c-0.3-0.2-0.7-0.3-1.1-0.3c-0.7,0-1.4,0.4-1.7,1
		C210.7,431.3,210.6,431.6,210.6,432z M230.4,436l-0.4-2.9l0.4-1.1l-0.4-1.1l0.4-2.9h3l-0.5,4l0.5,4H230.4z M231,432
		c-0.1,0.8-0.4,1.5-0.8,2.2c-0.4,0.6-0.9,1.1-1.5,1.5s-1.3,0.5-2,0.5s-1.4-0.2-2.1-0.5c-0.6-0.4-1.1-0.9-1.4-1.5
		c-0.3-0.7-0.5-1.4-0.5-2.2c0-0.8,0.2-1.5,0.5-2.2c0.3-0.6,0.8-1.1,1.4-1.5c0.6-0.4,1.3-0.5,2.1-0.5c0.7,0,1.4,0.2,2,0.5
		c0.6,0.4,1.1,0.9,1.5,1.5C230.7,430.4,230.9,431.2,231,432z M225.7,432c0,0.4,0.1,0.7,0.2,1c0.2,0.3,0.4,0.5,0.7,0.7s0.6,0.3,1,0.3
		s0.8-0.1,1.1-0.3c0.3-0.2,0.7-0.4,0.9-0.7c0.3-0.3,0.5-0.7,0.6-1c-0.1-0.4-0.3-0.8-0.6-1.1c-0.3-0.3-0.6-0.5-0.9-0.7
		c-0.3-0.2-0.7-0.3-1.1-0.3c-0.7,0-1.4,0.4-1.7,1C225.8,431.3,225.7,431.6,225.7,432z M238.2,428h2.9v2.3l-0.1,0.3v2.2l0.1,0.7v4.8
		h-2.9V428z M240.1,432c0.1-0.8,0.4-1.6,0.8-2.2c0.4-0.6,0.9-1.1,1.5-1.5c1.3-0.7,2.8-0.7,4.1,0c0.6,0.4,1.1,0.9,1.4,1.5
		c0.3,0.7,0.5,1.5,0.5,2.2c0,0.8-0.2,1.5-0.5,2.2c-0.3,0.6-0.8,1.1-1.4,1.5c-0.6,0.4-1.3,0.5-2.1,0.5c-0.7,0-1.4-0.2-2-0.5
		c-0.6-0.4-1.1-0.9-1.5-1.5C240.5,433.5,240.2,432.8,240.1,432L240.1,432z M245.5,432c0-0.4-0.1-0.7-0.2-1.1
		c-0.2-0.3-0.4-0.6-0.7-0.7c-0.3-0.2-0.6-0.3-1-0.3s-0.8,0.1-1.1,0.3c-0.3,0.2-0.7,0.4-0.9,0.7c-0.3,0.3-0.5,0.7-0.6,1.1
		c0.1,0.4,0.3,0.7,0.6,1s0.6,0.5,0.9,0.7c0.3,0.2,0.7,0.3,1.1,0.3c0.4,0,0.7-0.1,1-0.3c0.3-0.2,0.5-0.4,0.7-0.7
		C245.4,432.7,245.5,432.4,245.5,432L245.5,432z M249.6,427.9l1.4,0.3l1.4-0.3v8.1h-2.9v-8.1H249.6z M251,427.2
		c-0.4,0-0.9-0.1-1.2-0.4c-0.3-0.2-0.5-0.6-0.5-1s0.2-0.8,0.5-1c0.7-0.5,1.7-0.5,2.4,0c0.3,0.2,0.5,0.6,0.5,1s-0.2,0.8-0.5,1
		C251.9,427.1,251.4,427.2,251,427.2z M263.5,432.6c-0.1,0.7-0.3,1.4-0.8,1.9c-0.5,0.6-1.1,1-1.7,1.3c-0.8,0.3-1.6,0.5-2.4,0.4
		c-0.9,0-1.8-0.2-2.6-0.5c-0.7-0.3-1.3-0.8-1.8-1.5c-0.4-0.7-0.6-1.4-0.6-2.2c0-0.8,0.2-1.6,0.6-2.2c0.4-0.6,1-1.2,1.8-1.5
		c0.8-0.4,1.7-0.6,2.6-0.5c0.8,0,1.6,0.1,2.4,0.5c0.7,0.3,1.3,0.7,1.7,1.3c0.4,0.5,0.7,1.2,0.8,1.9h-2.8c-0.1-0.4-0.3-0.8-0.7-1.1
		c-0.7-0.5-1.7-0.5-2.5-0.1c-0.3,0.2-0.6,0.4-0.7,0.7c-0.2,0.4-0.3,0.8-0.3,1.2c0,0.4,0.1,0.8,0.3,1.1c0.2,0.3,0.4,0.6,0.7,0.7
		c0.3,0.2,0.7,0.3,1.1,0.2c0.5,0,1-0.1,1.4-0.4s0.6-0.6,0.7-1.1L263.5,432.6L263.5,432.6z M263.9,430.1v-1.2l1.6-0.7l1.2-2.4h1.6
		v2.2h3.4v2.1h-3.4v2.4c0,0.4,0.1,0.9,0.3,1.2c0.4,0.3,0.8,0.4,1.3,0.4c0.4,0,0.7,0,1-0.1s0.6-0.2,0.8-0.3v2.2
		c-0.4,0.1-0.7,0.2-1.1,0.3c-0.5,0.1-0.9,0.1-1.4,0.1c-0.7,0-1.5-0.1-2.2-0.4c-0.5-0.2-1-0.7-1.3-1.2c-0.3-0.6-0.4-1.2-0.4-1.8v-2.7
		L263.9,430.1z M276.5,436.2c-0.7,0-1.3-0.1-1.9-0.5c-0.5-0.3-0.9-0.8-1.2-1.3c-0.3-0.6-0.4-1.3-0.4-2V428h2.9v4.1
		c0,0.5,0.1,1,0.4,1.4c0.3,0.3,0.8,0.5,1.2,0.5c0.4,0,0.7-0.1,1-0.2c0.3-0.2,0.5-0.4,0.6-0.7c0.2-0.3,0.2-0.7,0.2-1.1l0.9,0.5
		c-0.1,0.8-0.3,1.5-0.7,2.1c-0.3,0.5-0.8,1-1.3,1.3C277.6,436.1,277.1,436.2,276.5,436.2L276.5,436.2z M279.8,436l-0.5-3.2V428h2.9
		v5.2l0.5,2.8H279.8z M283.5,428h2.9l0.5,2.9v5.1H284v-5.3L283.5,428z M290.6,427.9v2.4c-0.3-0.1-0.5-0.1-0.8-0.1
		c-0.2,0-0.5,0-0.7,0c-0.4,0-0.8,0.1-1.1,0.2c-0.4,0.2-0.6,0.5-0.8,0.8c-0.2,0.5-0.3,1-0.3,1.5l-0.5-0.7c0.1-0.6,0.2-1.1,0.3-1.6
		c0.1-0.5,0.3-0.9,0.6-1.4c0.2-0.4,0.6-0.7,1-0.9c0.4-0.2,0.9-0.4,1.4-0.3c0.2,0,0.3,0,0.5,0C290.3,427.8,290.5,427.8,290.6,427.9
		L290.6,427.9z M296.1,436.2c-0.9,0-1.8-0.2-2.6-0.5c-0.7-0.3-1.3-0.8-1.8-1.5c-0.4-0.7-0.7-1.4-0.7-2.2c0-0.8,0.2-1.5,0.6-2.2
		c0.4-0.6,1-1.2,1.7-1.5c0.8-0.4,1.6-0.5,2.5-0.5s1.7,0.2,2.5,0.6c0.7,0.4,1.2,1,1.6,1.8s0.6,1.8,0.6,2.7h-7.1v-1.7h5.5l-0.9,0.6
		c0-0.4-0.1-0.7-0.3-1c-0.2-0.3-0.4-0.5-0.7-0.7c-0.3-0.2-0.6-0.2-1-0.2s-0.7,0.1-1.1,0.3c-0.3,0.2-0.5,0.4-0.7,0.7
		c-0.2,0.3-0.3,0.7-0.3,1c0,0.5,0.1,0.9,0.3,1.3c0.2,0.4,0.6,0.6,1,0.8c0.5,0.2,1.1,0.3,1.6,0.3c0.6,0,1.2-0.1,1.8-0.2
		c0.6-0.1,1.1-0.4,1.6-0.7v1.8c-0.6,0.4-1.2,0.7-1.9,0.9C297.6,436.1,296.9,436.2,296.1,436.2L296.1,436.2z"/>
	<rect x="219.3" y="368.3" class="st0" width="13.4" height="13.4"/>
	<path class="st1" d="M231,396.8c10.3,0,18.7-8.4,18.7-18.7s-8.4-18.7-18.7-18.7s-18.7,8.4-18.7,18.7S220.7,396.8,231,396.8z
		 M229.3,384.6v-4.7h-4.7c-1,0-1.8-0.8-1.8-1.8s0.8-1.8,1.8-1.8h4.7v-4.7c0-1,0.8-1.8,1.8-1.8s1.8,0.8,1.8,1.8v4.7h4.7
		c1,0,1.8,0.8,1.8,1.8s-0.8,1.8-1.8,1.8h-4.7v4.7c0,1-0.8,1.8-1.8,1.8S229.3,385.5,229.3,384.6z"/>
</g>
</svg>
